<?xml version="1.0" encoding="UTF-8" standalone="no"?>
<!DOCTYPE svg PUBLIC "-//W3C//DTD SVG 1.1//EN"
 "http://www.w3.org/Graphics/SVG/1.1/DTD/svg11.dtd">
<!-- Generated by graphviz version 2.38.0 (20140413.2041)
 -->
<!-- Title: Ogre::HardwareIndexBuffer Pages: 1 -->
<svg width="590pt" height="215pt"
 viewBox="0.00 0.00 590.00 214.50" xmlns="http://www.w3.org/2000/svg" xmlns:xlink="http://www.w3.org/1999/xlink">
<g id="graph0" class="graph" transform="scale(1 1) rotate(0) translate(4 210.5)">
<title>Ogre::HardwareIndexBuffer</title>
<!-- Node1 -->
<g id="node1" class="node"><title>Node1</title>
<polygon fill="#bfbfbf" stroke="black" points="249,-93.5 249,-112.5 385,-112.5 385,-93.5 249,-93.5"/>
<text text-anchor="middle" x="317" y="-100.5" font-family="Helvetica,sans-Serif" font-size="10.00">Ogre::HardwareIndexBuffer</text>
</g>
<!-- Node4 -->
<g id="node4" class="node"><title>Node4</title>
<g id="a_node4"><a xlink:href="class_ogre_1_1_d3_d11_hardware_index_buffer.html" target="_top" xlink:title="Ogre::D3D11HardwareIndex\lBuffer">
<polygon fill="none" stroke="black" points="431.5,-176 431.5,-206 571.5,-206 571.5,-176 431.5,-176"/>
<text text-anchor="start" x="439.5" y="-194" font-family="Helvetica,sans-Serif" font-size="10.00">Ogre::D3D11HardwareIndex</text>
<text text-anchor="middle" x="501.5" y="-183" font-family="Helvetica,sans-Serif" font-size="10.00">Buffer</text>
</a>
</g>
</g>
<!-- Node1&#45;&gt;Node4 -->
<g id="edge3" class="edge"><title>Node1&#45;&gt;Node4</title>
<path fill="none" stroke="midnightblue" d="M339.614,-118.386C359.881,-132.277 391.414,-152.545 421,-166 429.034,-169.654 437.753,-172.985 446.375,-175.941"/>
<polygon fill="midnightblue" stroke="midnightblue" points="341.61,-115.51 331.4,-112.68 337.616,-121.259 341.61,-115.51"/>
</g>
<!-- Node5 -->
<g id="node5" class="node"><title>Node5</title>
<g id="a_node5"><a xlink:href="class_ogre_1_1_d3_d9_hardware_index_buffer.html" target="_top" xlink:title="Ogre::D3D9HardwareIndexBuffer">
<polygon fill="none" stroke="black" points="421,-137.5 421,-156.5 582,-156.5 582,-137.5 421,-137.5"/>
<text text-anchor="middle" x="501.5" y="-144.5" font-family="Helvetica,sans-Serif" font-size="10.00">Ogre::D3D9HardwareIndexBuffer</text>
</a>
</g>
</g>
<!-- Node1&#45;&gt;Node5 -->
<g id="edge4" class="edge"><title>Node1&#45;&gt;Node5</title>
<path fill="none" stroke="midnightblue" d="M366.906,-114.908C384.014,-119.063 403.354,-123.75 421,-128 433.831,-131.09 447.831,-134.443 460.458,-137.459"/>
<polygon fill="midnightblue" stroke="midnightblue" points="367.664,-111.49 357.12,-112.529 366.011,-118.292 367.664,-111.49"/>
</g>
<!-- Node6 -->
<g id="node6" class="node"><title>Node6</title>
<g id="a_node6"><a xlink:href="class_ogre_1_1_default_hardware_index_buffer.html" target="_top" xlink:title="Specialisation of HardwareIndexBuffer for emulation. ">
<polygon fill="none" stroke="black" points="431,-88 431,-118 572,-118 572,-88 431,-88"/>
<text text-anchor="start" x="439" y="-106" font-family="Helvetica,sans-Serif" font-size="10.00">Ogre::DefaultHardwareIndex</text>
<text text-anchor="middle" x="501.5" y="-95" font-family="Helvetica,sans-Serif" font-size="10.00">Buffer</text>
</a>
</g>
</g>
<!-- Node1&#45;&gt;Node6 -->
<g id="edge5" class="edge"><title>Node1&#45;&gt;Node6</title>
<path fill="none" stroke="midnightblue" d="M395.385,-103C407.114,-103 419.155,-103 430.71,-103"/>
<polygon fill="midnightblue" stroke="midnightblue" points="395.179,-99.5001 385.179,-103 395.179,-106.5 395.179,-99.5001"/>
</g>
<!-- Node7 -->
<g id="node7" class="node"><title>Node7</title>
<g id="a_node7"><a xlink:href="class_ogre_1_1_g_l3_plus_hardware_index_buffer.html" target="_top" xlink:title="Ogre::GL3PlusHardwareIndex\lBuffer">
<polygon fill="none" stroke="black" points="428,-39 428,-69 575,-69 575,-39 428,-39"/>
<text text-anchor="start" x="436" y="-57" font-family="Helvetica,sans-Serif" font-size="10.00">Ogre::GL3PlusHardwareIndex</text>
<text text-anchor="middle" x="501.5" y="-46" font-family="Helvetica,sans-Serif" font-size="10.00">Buffer</text>
</a>
</g>
</g>
<!-- Node1&#45;&gt;Node7 -->
<g id="edge6" class="edge"><title>Node1&#45;&gt;Node7</title>
<path fill="none" stroke="midnightblue" d="M363.4,-90.8104C387.949,-84.2192 418.48,-76.0218 444.495,-69.037"/>
<polygon fill="midnightblue" stroke="midnightblue" points="362.371,-87.4625 353.621,-93.436 364.187,-94.2231 362.371,-87.4625"/>
</g>
<!-- Node8 -->
<g id="node8" class="node"><title>Node8</title>
<g id="a_node8"><a xlink:href="class_ogre_1_1_g_l_hardware_index_buffer.html" target="_top" xlink:title="Ogre::GLHardwareIndexBuffer">
<polygon fill="none" stroke="black" points="427,-0.5 427,-19.5 576,-19.5 576,-0.5 427,-0.5"/>
<text text-anchor="middle" x="501.5" y="-7.5" font-family="Helvetica,sans-Serif" font-size="10.00">Ogre::GLHardwareIndexBuffer</text>
</a>
</g>
</g>
<!-- Node1&#45;&gt;Node8 -->
<g id="edge7" class="edge"><title>Node1&#45;&gt;Node8</title>
<path fill="none" stroke="midnightblue" d="M336.07,-86.6279C355.628,-69.7629 388.409,-43.8994 421,-29 429.389,-25.1649 438.643,-22.0524 447.782,-19.5428"/>
<polygon fill="midnightblue" stroke="midnightblue" points="333.739,-84.0169 328.537,-93.2467 338.36,-89.2755 333.739,-84.0169"/>
</g>
<!-- Node2 -->
<g id="node2" class="node"><title>Node2</title>
<g id="a_node2"><a xlink:href="class_ogre_1_1_hardware_buffer.html" target="_top" xlink:title="Abstract class defining common features of hardware buffers. ">
<polygon fill="none" stroke="black" points="101,-93.5 101,-112.5 213,-112.5 213,-93.5 101,-93.5"/>
<text text-anchor="middle" x="157" y="-100.5" font-family="Helvetica,sans-Serif" font-size="10.00">Ogre::HardwareBuffer</text>
</a>
</g>
</g>
<!-- Node2&#45;&gt;Node1 -->
<g id="edge1" class="edge"><title>Node2&#45;&gt;Node1</title>
<path fill="none" stroke="midnightblue" d="M223.374,-103C231.773,-103 240.384,-103 248.811,-103"/>
<polygon fill="midnightblue" stroke="midnightblue" points="223.261,-99.5001 213.261,-103 223.261,-106.5 223.261,-99.5001"/>
</g>
<!-- Node3 -->
<g id="node3" class="node"><title>Node3</title>
<g id="a_node3"><a xlink:href="class_ogre_1_1_allocated_object.html" target="_top" xlink:title="Superclass for all objects that wish to use custom memory allocators when their new / delete operator...">
<polygon fill="none" stroke="black" points="0,-93.5 0,-112.5 65,-112.5 65,-93.5 0,-93.5"/>
<text text-anchor="middle" x="32.5" y="-100.5" font-family="Helvetica,sans-Serif" font-size="10.00">BufferAlloc</text>
</a>
</g>
</g>
<!-- Node3&#45;&gt;Node2 -->
<g id="edge2" class="edge"><title>Node3&#45;&gt;Node2</title>
<path fill="none" stroke="midnightblue" d="M75.1571,-103C83.4035,-103 92.1796,-103 100.795,-103"/>
<polygon fill="midnightblue" stroke="midnightblue" points="75.0468,-99.5001 65.0468,-103 75.0468,-106.5 75.0468,-99.5001"/>
</g>
</g>
</svg>
