<?xml version="1.0" encoding="UTF-8" standalone="no"?>
<!DOCTYPE svg PUBLIC "-//W3C//DTD SVG 1.1//EN"
 "http://www.w3.org/Graphics/SVG/1.1/DTD/svg11.dtd">
<!-- Generated by graphviz version 2.38.0 (20140413.2041)
 -->
<!-- Title: Ogre::RenderTexture Pages: 1 -->
<svg width="755pt" height="161pt"
 viewBox="0.00 0.00 755.00 161.00" xmlns="http://www.w3.org/2000/svg" xmlns:xlink="http://www.w3.org/1999/xlink">
<g id="graph0" class="graph" transform="scale(1 1) rotate(0) translate(4 157)">
<title>Ogre::RenderTexture</title>
<!-- Node1 -->
<g id="node1" class="node"><title>Node1</title>
<polygon fill="#bfbfbf" stroke="black" points="262,-95.5 262,-114.5 370,-114.5 370,-95.5 262,-95.5"/>
<text text-anchor="middle" x="316" y="-102.5" font-family="Helvetica,sans-Serif" font-size="10.00">Ogre::RenderTexture</text>
</g>
<!-- Node4 -->
<g id="node4" class="node"><title>Node4</title>
<g id="a_node4"><a xlink:href="class_ogre_1_1_d3_d11_render_texture.html" target="_top" xlink:title="RenderTexture implementation for D3D11. ">
<polygon fill="none" stroke="black" points="406,-133.5 406,-152.5 545,-152.5 545,-133.5 406,-133.5"/>
<text text-anchor="middle" x="475.5" y="-140.5" font-family="Helvetica,sans-Serif" font-size="10.00">Ogre::D3D11RenderTexture</text>
</a>
</g>
</g>
<!-- Node1&#45;&gt;Node4 -->
<g id="edge3" class="edge"><title>Node1&#45;&gt;Node4</title>
<path fill="none" stroke="midnightblue" d="M366.604,-116.968C388.675,-122.293 414.303,-128.476 435.042,-133.48"/>
<polygon fill="midnightblue" stroke="midnightblue" points="367.286,-113.532 356.744,-114.589 365.644,-120.337 367.286,-113.532"/>
</g>
<!-- Node5 -->
<g id="node5" class="node"><title>Node5</title>
<g id="a_node5"><a xlink:href="class_ogre_1_1_d3_d9_render_texture.html" target="_top" xlink:title="RenderTexture implementation for D3D9. ">
<polygon fill="none" stroke="black" points="408.5,-95.5 408.5,-114.5 542.5,-114.5 542.5,-95.5 408.5,-95.5"/>
<text text-anchor="middle" x="475.5" y="-102.5" font-family="Helvetica,sans-Serif" font-size="10.00">Ogre::D3D9RenderTexture</text>
</a>
</g>
</g>
<!-- Node1&#45;&gt;Node5 -->
<g id="edge4" class="edge"><title>Node1&#45;&gt;Node5</title>
<path fill="none" stroke="midnightblue" d="M380.529,-105C389.702,-105 399.161,-105 408.383,-105"/>
<polygon fill="midnightblue" stroke="midnightblue" points="380.322,-101.5 370.322,-105 380.322,-108.5 380.322,-101.5"/>
</g>
<!-- Node6 -->
<g id="node6" class="node"><title>Node6</title>
<g id="a_node6"><a xlink:href="class_ogre_1_1_g_l_render_texture.html" target="_top" xlink:title="Base class for GL Render Textures. ">
<polygon fill="none" stroke="black" points="415,-57.5 415,-76.5 536,-76.5 536,-57.5 415,-57.5"/>
<text text-anchor="middle" x="475.5" y="-64.5" font-family="Helvetica,sans-Serif" font-size="10.00">Ogre::GLRenderTexture</text>
</a>
</g>
</g>
<!-- Node1&#45;&gt;Node6 -->
<g id="edge5" class="edge"><title>Node1&#45;&gt;Node6</title>
<path fill="none" stroke="midnightblue" d="M366.604,-93.032C388.675,-87.7069 414.303,-81.5238 435.042,-76.5201"/>
<polygon fill="midnightblue" stroke="midnightblue" points="365.644,-89.6631 356.744,-95.411 367.286,-96.4679 365.644,-89.6631"/>
</g>
<!-- Node2 -->
<g id="node2" class="node"><title>Node2</title>
<g id="a_node2"><a xlink:href="class_ogre_1_1_render_target.html" target="_top" xlink:title="A &#39;canvas&#39; which can receive the results of a rendering operation. ">
<polygon fill="none" stroke="black" points="123,-95.5 123,-114.5 226,-114.5 226,-95.5 123,-95.5"/>
<text text-anchor="middle" x="174.5" y="-102.5" font-family="Helvetica,sans-Serif" font-size="10.00">Ogre::RenderTarget</text>
</a>
</g>
</g>
<!-- Node2&#45;&gt;Node1 -->
<g id="edge1" class="edge"><title>Node2&#45;&gt;Node1</title>
<path fill="none" stroke="midnightblue" d="M236.41,-105C244.832,-105 253.429,-105 261.698,-105"/>
<polygon fill="midnightblue" stroke="midnightblue" points="236.257,-101.5 226.257,-105 236.257,-108.5 236.257,-101.5"/>
</g>
<!-- Node3 -->
<g id="node3" class="node"><title>Node3</title>
<g id="a_node3"><a xlink:href="class_ogre_1_1_allocated_object.html" target="_top" xlink:title="Superclass for all objects that wish to use custom memory allocators when their new / delete operator...">
<polygon fill="none" stroke="black" points="0,-95.5 0,-114.5 87,-114.5 87,-95.5 0,-95.5"/>
<text text-anchor="middle" x="43.5" y="-102.5" font-family="Helvetica,sans-Serif" font-size="10.00">RenderSysAlloc</text>
</a>
</g>
</g>
<!-- Node3&#45;&gt;Node2 -->
<g id="edge2" class="edge"><title>Node3&#45;&gt;Node2</title>
<path fill="none" stroke="midnightblue" d="M97.2458,-105C105.713,-105 114.461,-105 122.877,-105"/>
<polygon fill="midnightblue" stroke="midnightblue" points="97.097,-101.5 87.0969,-105 97.0969,-108.5 97.097,-101.5"/>
</g>
<!-- Node7 -->
<g id="node7" class="node"><title>Node7</title>
<g id="a_node7"><a xlink:href="class_ogre_1_1_g_l3_plus_f_b_o_render_texture.html" target="_top" xlink:title="RenderTexture for GL FBO. ">
<polygon fill="none" stroke="black" points="581,-114.5 581,-133.5 747,-133.5 747,-114.5 581,-114.5"/>
<text text-anchor="middle" x="664" y="-121.5" font-family="Helvetica,sans-Serif" font-size="10.00">Ogre::GL3PlusFBORenderTexture</text>
</a>
</g>
</g>
<!-- Node6&#45;&gt;Node7 -->
<g id="edge6" class="edge"><title>Node6&#45;&gt;Node7</title>
<path fill="none" stroke="midnightblue" d="M526.365,-79.4715C532.706,-81.4536 539.054,-83.6381 545,-86 561.814,-92.6786 564.047,-98.6834 581,-105 590.996,-108.725 601.959,-111.87 612.525,-114.464"/>
<polygon fill="midnightblue" stroke="midnightblue" points="527.044,-76.0223 516.462,-76.527 525.049,-82.7319 527.044,-76.0223"/>
</g>
<!-- Node8 -->
<g id="node8" class="node"><title>Node8</title>
<g id="a_node8"><a xlink:href="class_ogre_1_1_g_l_copying_render_texture.html" target="_top" xlink:title="Ogre::GLCopyingRenderTexture">
<polygon fill="none" stroke="black" points="585.5,-76.5 585.5,-95.5 742.5,-95.5 742.5,-76.5 585.5,-76.5"/>
<text text-anchor="middle" x="664" y="-83.5" font-family="Helvetica,sans-Serif" font-size="10.00">Ogre::GLCopyingRenderTexture</text>
</a>
</g>
</g>
<!-- Node6&#45;&gt;Node8 -->
<g id="edge7" class="edge"><title>Node6&#45;&gt;Node8</title>
<path fill="none" stroke="midnightblue" d="M546.115,-74.0922C558.894,-75.394 572.307,-76.7605 585.305,-78.0847"/>
<polygon fill="midnightblue" stroke="midnightblue" points="546.326,-70.5956 536.023,-73.064 545.616,-77.5595 546.326,-70.5956"/>
</g>
<!-- Node9 -->
<g id="node9" class="node"><title>Node9</title>
<g id="a_node9"><a xlink:href="class_ogre_1_1_g_l_f_b_o_render_texture.html" target="_top" xlink:title="RenderTexture for GL FBO. ">
<polygon fill="none" stroke="black" points="593.5,-38.5 593.5,-57.5 734.5,-57.5 734.5,-38.5 593.5,-38.5"/>
<text text-anchor="middle" x="664" y="-45.5" font-family="Helvetica,sans-Serif" font-size="10.00">Ogre::GLFBORenderTexture</text>
</a>
</g>
</g>
<!-- Node6&#45;&gt;Node9 -->
<g id="edge8" class="edge"><title>Node6&#45;&gt;Node9</title>
<path fill="none" stroke="midnightblue" d="M546.022,-59.9173C561.472,-58.3433 577.854,-56.6744 593.311,-55.0997"/>
<polygon fill="midnightblue" stroke="midnightblue" points="545.616,-56.4405 536.023,-60.936 546.326,-63.4044 545.616,-56.4405"/>
</g>
<!-- Node10 -->
<g id="node10" class="node"><title>Node10</title>
<g id="a_node10"><a xlink:href="class_ogre_1_1_g_l_p_b_render_texture.html" target="_top" xlink:title="Ogre::GLPBRenderTexture">
<polygon fill="none" stroke="black" points="597,-0.5 597,-19.5 731,-19.5 731,-0.5 597,-0.5"/>
<text text-anchor="middle" x="664" y="-7.5" font-family="Helvetica,sans-Serif" font-size="10.00">Ogre::GLPBRenderTexture</text>
</a>
</g>
</g>
<!-- Node6&#45;&gt;Node10 -->
<g id="edge9" class="edge"><title>Node6&#45;&gt;Node10</title>
<path fill="none" stroke="midnightblue" d="M509.747,-53.7421C530.112,-45.9146 556.824,-36.168 581,-29 592.629,-25.5523 605.337,-22.3429 617.201,-19.5798"/>
<polygon fill="midnightblue" stroke="midnightblue" points="508.353,-50.5286 500.298,-57.4109 510.887,-57.054 508.353,-50.5286"/>
</g>
</g>
</svg>
