<?xml version="1.0" encoding="UTF-8" standalone="no"?>
<!DOCTYPE svg PUBLIC "-//W3C//DTD SVG 1.1//EN"
 "http://www.w3.org/Graphics/SVG/1.1/DTD/svg11.dtd">
<!-- Generated by graphviz version 2.38.0 (20140413.2041)
 -->
<!-- Title: Ogre::GLSL::GLSLLinkProgramManager Pages: 1 -->
<svg width="318pt" height="106pt"
 viewBox="0.00 0.00 317.50 106.00" xmlns="http://www.w3.org/2000/svg" xmlns:xlink="http://www.w3.org/1999/xlink">
<g id="graph0" class="graph" transform="scale(1 1) rotate(0) translate(4 102)">
<title>Ogre::GLSL::GLSLLinkProgramManager</title>
<!-- Node1 -->
<g id="node1" class="node"><title>Node1</title>
<polygon fill="#bfbfbf" stroke="black" points="73,-0.5 73,-30.5 227,-30.5 227,-0.5 73,-0.5"/>
<text text-anchor="start" x="81" y="-18.5" font-family="Helvetica,sans-Serif" font-size="10.00">Ogre::GLSL::GLSLLinkProgram</text>
<text text-anchor="middle" x="150" y="-7.5" font-family="Helvetica,sans-Serif" font-size="10.00">Manager</text>
</g>
<!-- Node2 -->
<g id="node2" class="node"><title>Node2</title>
<g id="a_node2"><a xlink:href="class_ogre_1_1_singleton.html" target="_top" xlink:title="Ogre::Singleton\&lt; GLSLLink\lProgramManager \&gt;">
<polygon fill="none" stroke="black" points="0,-67.5 0,-97.5 136,-97.5 136,-67.5 0,-67.5"/>
<text text-anchor="start" x="8" y="-85.5" font-family="Helvetica,sans-Serif" font-size="10.00">Ogre::Singleton&lt; GLSLLink</text>
<text text-anchor="middle" x="68" y="-74.5" font-family="Helvetica,sans-Serif" font-size="10.00">ProgramManager &gt;</text>
</a>
</g>
</g>
<!-- Node2&#45;&gt;Node1 -->
<g id="edge1" class="edge"><title>Node2&#45;&gt;Node1</title>
<path fill="none" stroke="midnightblue" d="M93.65,-61.1677C106.189,-51.2283 120.966,-39.5144 132.242,-30.5765"/>
<polygon fill="midnightblue" stroke="midnightblue" points="91.4552,-58.4412 85.7928,-67.396 95.8036,-63.9268 91.4552,-58.4412"/>
</g>
<!-- Node3 -->
<g id="node3" class="node"><title>Node3</title>
<polygon fill="none" stroke="#bfbfbf" points="154.5,-73 154.5,-92 309.5,-92 309.5,-73 154.5,-73"/>
<text text-anchor="middle" x="232" y="-80" font-family="Helvetica,sans-Serif" font-size="10.00">GLSLProgramManagerCommon</text>
</g>
<!-- Node3&#45;&gt;Node1 -->
<g id="edge2" class="edge"><title>Node3&#45;&gt;Node1</title>
<path fill="none" stroke="midnightblue" d="M212.745,-66.2371C199.139,-55.4518 181.037,-41.1025 167.774,-30.589"/>
<polygon fill="midnightblue" stroke="midnightblue" points="210.93,-69.2647 220.941,-72.7338 215.279,-63.779 210.93,-69.2647"/>
</g>
</g>
</svg>
