<?xml version="1.0" encoding="UTF-8" standalone="no"?>
<!DOCTYPE svg PUBLIC "-//W3C//DTD SVG 1.1//EN"
 "http://www.w3.org/Graphics/SVG/1.1/DTD/svg11.dtd">
<!-- Generated by graphviz version 2.38.0 (20140413.2041)
 -->
<!-- Title: Ogre::GLSLSeparableProgramManager Pages: 1 -->
<svg width="336pt" height="162pt"
 viewBox="0.00 0.00 336.00 162.00" xmlns="http://www.w3.org/2000/svg" xmlns:xlink="http://www.w3.org/1999/xlink">
<g id="graph0" class="graph" transform="scale(1 1) rotate(0) translate(4 158)">
<title>Ogre::GLSLSeparableProgramManager</title>
<!-- Node1 -->
<g id="node1" class="node"><title>Node1</title>
<polygon fill="#bfbfbf" stroke="black" points="88,-0.5 88,-30.5 237,-30.5 237,-0.5 88,-0.5"/>
<text text-anchor="start" x="96" y="-18.5" font-family="Helvetica,sans-Serif" font-size="10.00">Ogre::GLSLSeparableProgram</text>
<text text-anchor="middle" x="162.5" y="-7.5" font-family="Helvetica,sans-Serif" font-size="10.00">Manager</text>
</g>
<!-- Node2 -->
<g id="node2" class="node"><title>Node2</title>
<g id="a_node2"><a xlink:href="class_ogre_1_1_g_l_s_l_program_manager.html" target="_top" xlink:title="Ogre::GLSLProgramManager">
<polygon fill="none" stroke="black" points="6,-73 6,-92 149,-92 149,-73 6,-73"/>
<text text-anchor="middle" x="77.5" y="-80" font-family="Helvetica,sans-Serif" font-size="10.00">Ogre::GLSLProgramManager</text>
</a>
</g>
</g>
<!-- Node2&#45;&gt;Node1 -->
<g id="edge1" class="edge"><title>Node2&#45;&gt;Node1</title>
<path fill="none" stroke="midnightblue" d="M97.0575,-66.5443C111.205,-55.7254 130.197,-41.2026 144.076,-30.589"/>
<polygon fill="midnightblue" stroke="midnightblue" points="94.781,-63.879 88.9635,-72.7338 99.0332,-69.4395 94.781,-63.879"/>
</g>
<!-- Node3 -->
<g id="node3" class="node"><title>Node3</title>
<polygon fill="none" stroke="#bfbfbf" points="0,-134.5 0,-153.5 155,-153.5 155,-134.5 0,-134.5"/>
<text text-anchor="middle" x="77.5" y="-141.5" font-family="Helvetica,sans-Serif" font-size="10.00">GLSLProgramManagerCommon</text>
</g>
<!-- Node3&#45;&gt;Node2 -->
<g id="edge2" class="edge"><title>Node3&#45;&gt;Node2</title>
<path fill="none" stroke="midnightblue" d="M77.5,-124.317C77.5,-113.496 77.5,-100.398 77.5,-92.0091"/>
<polygon fill="midnightblue" stroke="midnightblue" points="74.0001,-124.475 77.5,-134.475 81.0001,-124.475 74.0001,-124.475"/>
</g>
<!-- Node4 -->
<g id="node4" class="node"><title>Node4</title>
<g id="a_node4"><a xlink:href="class_ogre_1_1_singleton.html" target="_top" xlink:title="Ogre::Singleton\&lt; GLSLSeparable\lProgramManager \&gt;">
<polygon fill="none" stroke="black" points="167,-67.5 167,-97.5 328,-97.5 328,-67.5 167,-67.5"/>
<text text-anchor="start" x="175" y="-85.5" font-family="Helvetica,sans-Serif" font-size="10.00">Ogre::Singleton&lt; GLSLSeparable</text>
<text text-anchor="middle" x="247.5" y="-74.5" font-family="Helvetica,sans-Serif" font-size="10.00">ProgramManager &gt;</text>
</a>
</g>
</g>
<!-- Node4&#45;&gt;Node1 -->
<g id="edge3" class="edge"><title>Node4&#45;&gt;Node1</title>
<path fill="none" stroke="midnightblue" d="M220.912,-61.1677C207.914,-51.2283 192.596,-39.5144 180.908,-30.5765"/>
<polygon fill="midnightblue" stroke="midnightblue" points="218.987,-64.1017 229.056,-67.396 223.239,-58.5412 218.987,-64.1017"/>
</g>
</g>
</svg>
