<?xml version="1.0" encoding="UTF-8" standalone="no"?>
<!DOCTYPE svg PUBLIC "-//W3C//DTD SVG 1.1//EN"
 "http://www.w3.org/Graphics/SVG/1.1/DTD/svg11.dtd">
<!-- Generated by graphviz version 2.38.0 (20140413.2041)
 -->
<!-- Title: Ogre::GLRenderTexture Pages: 1 -->
<svg width="737pt" height="142pt"
 viewBox="0.00 0.00 737.00 142.00" xmlns="http://www.w3.org/2000/svg" xmlns:xlink="http://www.w3.org/1999/xlink">
<g id="graph0" class="graph" transform="scale(1 1) rotate(0) translate(4 138)">
<title>Ogre::GLRenderTexture</title>
<!-- Node1 -->
<g id="node1" class="node"><title>Node1</title>
<polygon fill="#bfbfbf" stroke="black" points="406,-57.5 406,-76.5 527,-76.5 527,-57.5 406,-57.5"/>
<text text-anchor="middle" x="466.5" y="-64.5" font-family="Helvetica,sans-Serif" font-size="10.00">Ogre::GLRenderTexture</text>
</g>
<!-- Node5 -->
<g id="node5" class="node"><title>Node5</title>
<g id="a_node5"><a xlink:href="class_ogre_1_1_g_l3_plus_f_b_o_render_texture.html" target="_top" xlink:title="RenderTexture for GL FBO. ">
<polygon fill="none" stroke="black" points="563,-114.5 563,-133.5 729,-133.5 729,-114.5 563,-114.5"/>
<text text-anchor="middle" x="646" y="-121.5" font-family="Helvetica,sans-Serif" font-size="10.00">Ogre::GL3PlusFBORenderTexture</text>
</a>
</g>
</g>
<!-- Node1&#45;&gt;Node5 -->
<g id="edge4" class="edge"><title>Node1&#45;&gt;Node5</title>
<path fill="none" stroke="midnightblue" d="M498.173,-80.5772C516.695,-88.4289 540.913,-98.0904 563,-105 574.297,-108.534 586.654,-111.734 598.27,-114.457"/>
<polygon fill="midnightblue" stroke="midnightblue" points="499.354,-77.2753 488.785,-76.5457 496.592,-83.7074 499.354,-77.2753"/>
</g>
<!-- Node6 -->
<g id="node6" class="node"><title>Node6</title>
<g id="a_node6"><a xlink:href="class_ogre_1_1_g_l_copying_render_texture.html" target="_top" xlink:title="Ogre::GLCopyingRenderTexture">
<polygon fill="none" stroke="black" points="567.5,-76.5 567.5,-95.5 724.5,-95.5 724.5,-76.5 567.5,-76.5"/>
<text text-anchor="middle" x="646" y="-83.5" font-family="Helvetica,sans-Serif" font-size="10.00">Ogre::GLCopyingRenderTexture</text>
</a>
</g>
</g>
<!-- Node1&#45;&gt;Node6 -->
<g id="edge5" class="edge"><title>Node1&#45;&gt;Node6</title>
<path fill="none" stroke="midnightblue" d="M537.232,-74.4642C547.09,-75.5195 557.277,-76.61 567.275,-77.6801"/>
<polygon fill="midnightblue" stroke="midnightblue" points="537.414,-70.9639 527.099,-73.3796 536.669,-77.9241 537.414,-70.9639"/>
</g>
<!-- Node7 -->
<g id="node7" class="node"><title>Node7</title>
<g id="a_node7"><a xlink:href="class_ogre_1_1_g_l_f_b_o_render_texture.html" target="_top" xlink:title="RenderTexture for GL FBO. ">
<polygon fill="none" stroke="black" points="575.5,-38.5 575.5,-57.5 716.5,-57.5 716.5,-38.5 575.5,-38.5"/>
<text text-anchor="middle" x="646" y="-45.5" font-family="Helvetica,sans-Serif" font-size="10.00">Ogre::GLFBORenderTexture</text>
</a>
</g>
</g>
<!-- Node1&#45;&gt;Node7 -->
<g id="edge6" class="edge"><title>Node1&#45;&gt;Node7</title>
<path fill="none" stroke="midnightblue" d="M537.071,-59.5529C549.677,-58.2036 562.825,-56.7962 575.43,-55.4469"/>
<polygon fill="midnightblue" stroke="midnightblue" points="536.669,-56.0759 527.099,-60.6204 537.414,-63.0361 536.669,-56.0759"/>
</g>
<!-- Node8 -->
<g id="node8" class="node"><title>Node8</title>
<g id="a_node8"><a xlink:href="class_ogre_1_1_g_l_p_b_render_texture.html" target="_top" xlink:title="Ogre::GLPBRenderTexture">
<polygon fill="none" stroke="black" points="579,-0.5 579,-19.5 713,-19.5 713,-0.5 579,-0.5"/>
<text text-anchor="middle" x="646" y="-7.5" font-family="Helvetica,sans-Serif" font-size="10.00">Ogre::GLPBRenderTexture</text>
</a>
</g>
</g>
<!-- Node1&#45;&gt;Node8 -->
<g id="edge7" class="edge"><title>Node1&#45;&gt;Node8</title>
<path fill="none" stroke="midnightblue" d="M498.173,-53.4228C516.695,-45.5711 540.913,-35.9096 563,-29 574.297,-25.4659 586.654,-22.2661 598.27,-19.5428"/>
<polygon fill="midnightblue" stroke="midnightblue" points="496.592,-50.2926 488.785,-57.4543 499.354,-56.7247 496.592,-50.2926"/>
</g>
<!-- Node2 -->
<g id="node2" class="node"><title>Node2</title>
<g id="a_node2"><a xlink:href="class_ogre_1_1_render_texture.html" target="_top" xlink:title="This class represents a RenderTarget that renders to a Texture. ">
<polygon fill="none" stroke="black" points="262,-57.5 262,-76.5 370,-76.5 370,-57.5 262,-57.5"/>
<text text-anchor="middle" x="316" y="-64.5" font-family="Helvetica,sans-Serif" font-size="10.00">Ogre::RenderTexture</text>
</a>
</g>
</g>
<!-- Node2&#45;&gt;Node1 -->
<g id="edge1" class="edge"><title>Node2&#45;&gt;Node1</title>
<path fill="none" stroke="midnightblue" d="M380.38,-67C388.835,-67 397.483,-67 405.871,-67"/>
<polygon fill="midnightblue" stroke="midnightblue" points="380.192,-63.5001 370.192,-67 380.192,-70.5001 380.192,-63.5001"/>
</g>
<!-- Node3 -->
<g id="node3" class="node"><title>Node3</title>
<g id="a_node3"><a xlink:href="class_ogre_1_1_render_target.html" target="_top" xlink:title="A &#39;canvas&#39; which can receive the results of a rendering operation. ">
<polygon fill="none" stroke="black" points="123,-57.5 123,-76.5 226,-76.5 226,-57.5 123,-57.5"/>
<text text-anchor="middle" x="174.5" y="-64.5" font-family="Helvetica,sans-Serif" font-size="10.00">Ogre::RenderTarget</text>
</a>
</g>
</g>
<!-- Node3&#45;&gt;Node2 -->
<g id="edge2" class="edge"><title>Node3&#45;&gt;Node2</title>
<path fill="none" stroke="midnightblue" d="M236.41,-67C244.832,-67 253.429,-67 261.698,-67"/>
<polygon fill="midnightblue" stroke="midnightblue" points="236.257,-63.5001 226.257,-67 236.257,-70.5001 236.257,-63.5001"/>
</g>
<!-- Node4 -->
<g id="node4" class="node"><title>Node4</title>
<g id="a_node4"><a xlink:href="class_ogre_1_1_allocated_object.html" target="_top" xlink:title="Superclass for all objects that wish to use custom memory allocators when their new / delete operator...">
<polygon fill="none" stroke="black" points="0,-57.5 0,-76.5 87,-76.5 87,-57.5 0,-57.5"/>
<text text-anchor="middle" x="43.5" y="-64.5" font-family="Helvetica,sans-Serif" font-size="10.00">RenderSysAlloc</text>
</a>
</g>
</g>
<!-- Node4&#45;&gt;Node3 -->
<g id="edge3" class="edge"><title>Node4&#45;&gt;Node3</title>
<path fill="none" stroke="midnightblue" d="M97.2458,-67C105.713,-67 114.461,-67 122.877,-67"/>
<polygon fill="midnightblue" stroke="midnightblue" points="97.097,-63.5001 87.0969,-67 97.0969,-70.5001 97.097,-63.5001"/>
</g>
</g>
</svg>
