<?xml version="1.0" encoding="UTF-8" standalone="no"?>
<!DOCTYPE svg PUBLIC "-//W3C//DTD SVG 1.1//EN"
 "http://www.w3.org/Graphics/SVG/1.1/DTD/svg11.dtd">
<!-- Generated by graphviz version 2.38.0 (20140413.2041)
 -->
<!-- Title: Ogre::HardwareVertexBuffer Pages: 1 -->
<svg width="586pt" height="225pt"
 viewBox="0.00 0.00 586.00 224.50" xmlns="http://www.w3.org/2000/svg" xmlns:xlink="http://www.w3.org/1999/xlink">
<g id="graph0" class="graph" transform="scale(1 1) rotate(0) translate(4 220.5)">
<title>Ogre::HardwareVertexBuffer</title>
<!-- Node1 -->
<g id="node1" class="node"><title>Node1</title>
<polygon fill="#bfbfbf" stroke="black" points="249,-93.5 249,-112.5 389,-112.5 389,-93.5 249,-93.5"/>
<text text-anchor="middle" x="319" y="-100.5" font-family="Helvetica,sans-Serif" font-size="10.00">Ogre::HardwareVertexBuffer</text>
</g>
<!-- Node4 -->
<g id="node4" class="node"><title>Node4</title>
<g id="a_node4"><a xlink:href="class_ogre_1_1_d3_d11_hardware_vertex_buffer.html" target="_top" xlink:title="Specialisation of HardwareVertexBuffer for D3D11. ">
<polygon fill="none" stroke="black" points="429,-186 429,-216 574,-216 574,-186 429,-186"/>
<text text-anchor="start" x="437" y="-204" font-family="Helvetica,sans-Serif" font-size="10.00">Ogre::D3D11HardwareVertex</text>
<text text-anchor="middle" x="501.5" y="-193" font-family="Helvetica,sans-Serif" font-size="10.00">Buffer</text>
</a>
</g>
</g>
<!-- Node1&#45;&gt;Node4 -->
<g id="edge3" class="edge"><title>Node1&#45;&gt;Node4</title>
<path fill="none" stroke="midnightblue" d="M339.032,-119.144C359.24,-135.607 392.666,-160.946 425,-177 431.652,-180.303 438.858,-183.28 446.086,-185.922"/>
<polygon fill="midnightblue" stroke="midnightblue" points="341.159,-116.361 331.222,-112.685 336.698,-121.755 341.159,-116.361"/>
</g>
<!-- Node5 -->
<g id="node5" class="node"><title>Node5</title>
<g id="a_node5"><a xlink:href="class_ogre_1_1_d3_d9_hardware_vertex_buffer.html" target="_top" xlink:title="Specialisation of HardwareVertexBuffer for D3D9. ">
<polygon fill="none" stroke="black" points="431.5,-137 431.5,-167 571.5,-167 571.5,-137 431.5,-137"/>
<text text-anchor="start" x="439.5" y="-155" font-family="Helvetica,sans-Serif" font-size="10.00">Ogre::D3D9HardwareVertex</text>
<text text-anchor="middle" x="501.5" y="-144" font-family="Helvetica,sans-Serif" font-size="10.00">Buffer</text>
</a>
</g>
</g>
<!-- Node1&#45;&gt;Node5 -->
<g id="edge4" class="edge"><title>Node1&#45;&gt;Node5</title>
<path fill="none" stroke="midnightblue" d="M364.902,-115.19C389.182,-121.781 419.379,-129.978 445.109,-136.963"/>
<polygon fill="midnightblue" stroke="midnightblue" points="365.798,-111.806 355.231,-112.564 363.964,-118.562 365.798,-111.806"/>
</g>
<!-- Node6 -->
<g id="node6" class="node"><title>Node6</title>
<g id="a_node6"><a xlink:href="class_ogre_1_1_default_hardware_vertex_buffer.html" target="_top" xlink:title="Specialisation of HardwareVertexBuffer for emulation. ">
<polygon fill="none" stroke="black" points="428.5,-88 428.5,-118 574.5,-118 574.5,-88 428.5,-88"/>
<text text-anchor="start" x="436.5" y="-106" font-family="Helvetica,sans-Serif" font-size="10.00">Ogre::DefaultHardwareVertex</text>
<text text-anchor="middle" x="501.5" y="-95" font-family="Helvetica,sans-Serif" font-size="10.00">Buffer</text>
</a>
</g>
</g>
<!-- Node1&#45;&gt;Node6 -->
<g id="edge5" class="edge"><title>Node1&#45;&gt;Node6</title>
<path fill="none" stroke="midnightblue" d="M399.044,-103C408.75,-103 418.631,-103 428.23,-103"/>
<polygon fill="midnightblue" stroke="midnightblue" points="399.012,-99.5001 389.012,-103 399.012,-106.5 399.012,-99.5001"/>
</g>
<!-- Node7 -->
<g id="node7" class="node"><title>Node7</title>
<g id="a_node7"><a xlink:href="class_ogre_1_1_g_l3_plus_hardware_vertex_buffer.html" target="_top" xlink:title="Specialisation of HardwareVertexBuffer for OpenGL. ">
<polygon fill="none" stroke="black" points="425.5,-39 425.5,-69 577.5,-69 577.5,-39 425.5,-39"/>
<text text-anchor="start" x="433.5" y="-57" font-family="Helvetica,sans-Serif" font-size="10.00">Ogre::GL3PlusHardwareVertex</text>
<text text-anchor="middle" x="501.5" y="-46" font-family="Helvetica,sans-Serif" font-size="10.00">Buffer</text>
</a>
</g>
</g>
<!-- Node1&#45;&gt;Node7 -->
<g id="edge6" class="edge"><title>Node1&#45;&gt;Node7</title>
<path fill="none" stroke="midnightblue" d="M364.902,-90.8104C389.182,-84.2192 419.379,-76.0218 445.109,-69.037"/>
<polygon fill="midnightblue" stroke="midnightblue" points="363.964,-87.4383 355.231,-93.436 365.798,-94.1938 363.964,-87.4383"/>
</g>
<!-- Node8 -->
<g id="node8" class="node"><title>Node8</title>
<g id="a_node8"><a xlink:href="class_ogre_1_1_g_l_hardware_vertex_buffer.html" target="_top" xlink:title="Specialisation of HardwareVertexBuffer for OpenGL. ">
<polygon fill="none" stroke="black" points="425,-0.5 425,-19.5 578,-19.5 578,-0.5 425,-0.5"/>
<text text-anchor="middle" x="501.5" y="-7.5" font-family="Helvetica,sans-Serif" font-size="10.00">Ogre::GLHardwareVertexBuffer</text>
</a>
</g>
</g>
<!-- Node1&#45;&gt;Node8 -->
<g id="edge7" class="edge"><title>Node1&#45;&gt;Node8</title>
<path fill="none" stroke="midnightblue" d="M338.515,-86.7229C358.53,-69.9367 392.012,-44.138 425,-29 433.231,-25.223 442.325,-22.1216 451.266,-19.6008"/>
<polygon fill="midnightblue" stroke="midnightblue" points="336.135,-84.1528 330.802,-93.3079 340.68,-89.4765 336.135,-84.1528"/>
</g>
<!-- Node2 -->
<g id="node2" class="node"><title>Node2</title>
<g id="a_node2"><a xlink:href="class_ogre_1_1_hardware_buffer.html" target="_top" xlink:title="Abstract class defining common features of hardware buffers. ">
<polygon fill="none" stroke="black" points="101,-93.5 101,-112.5 213,-112.5 213,-93.5 101,-93.5"/>
<text text-anchor="middle" x="157" y="-100.5" font-family="Helvetica,sans-Serif" font-size="10.00">Ogre::HardwareBuffer</text>
</a>
</g>
</g>
<!-- Node2&#45;&gt;Node1 -->
<g id="edge1" class="edge"><title>Node2&#45;&gt;Node1</title>
<path fill="none" stroke="midnightblue" d="M223.264,-103C231.742,-103 240.448,-103 248.985,-103"/>
<polygon fill="midnightblue" stroke="midnightblue" points="223.063,-99.5001 213.063,-103 223.063,-106.5 223.063,-99.5001"/>
</g>
<!-- Node3 -->
<g id="node3" class="node"><title>Node3</title>
<g id="a_node3"><a xlink:href="class_ogre_1_1_allocated_object.html" target="_top" xlink:title="Superclass for all objects that wish to use custom memory allocators when their new / delete operator...">
<polygon fill="none" stroke="black" points="0,-93.5 0,-112.5 65,-112.5 65,-93.5 0,-93.5"/>
<text text-anchor="middle" x="32.5" y="-100.5" font-family="Helvetica,sans-Serif" font-size="10.00">BufferAlloc</text>
</a>
</g>
</g>
<!-- Node3&#45;&gt;Node2 -->
<g id="edge2" class="edge"><title>Node3&#45;&gt;Node2</title>
<path fill="none" stroke="midnightblue" d="M75.1571,-103C83.4035,-103 92.1796,-103 100.795,-103"/>
<polygon fill="midnightblue" stroke="midnightblue" points="75.0468,-99.5001 65.0468,-103 75.0468,-106.5 75.0468,-99.5001"/>
</g>
</g>
</svg>
