<?xml version="1.0" encoding="UTF-8" standalone="no"?>
<!DOCTYPE svg PUBLIC "-//W3C//DTD SVG 1.1//EN"
 "http://www.w3.org/Graphics/SVG/1.1/DTD/svg11.dtd">
<!-- Generated by graphviz version 2.38.0 (20140413.2041)
 -->
<!-- Title: Ogre::HardwareBuffer Pages: 1 -->
<svg width="958pt" height="930pt"
 viewBox="0.00 0.00 958.00 929.50" xmlns="http://www.w3.org/2000/svg" xmlns:xlink="http://www.w3.org/1999/xlink">
<g id="graph0" class="graph" transform="scale(1 1) rotate(0) translate(4 925.5)">
<title>Ogre::HardwareBuffer</title>
<!-- Node1 -->
<g id="node1" class="node"><title>Node1</title>
<polygon fill="#bfbfbf" stroke="black" points="101,-617.5 101,-636.5 213,-636.5 213,-617.5 101,-617.5"/>
<text text-anchor="middle" x="157" y="-624.5" font-family="Helvetica,sans-Serif" font-size="10.00">Ogre::HardwareBuffer</text>
</g>
<!-- Node3 -->
<g id="node3" class="node"><title>Node3</title>
<g id="a_node3"><a xlink:href="class_ogre_1_1_d3_d11_hardware_buffer.html" target="_top" xlink:title="Base implementation of a D3D11 buffer, dealing with all the common aspects. ">
<polygon fill="none" stroke="black" points="250.5,-835.5 250.5,-854.5 393.5,-854.5 393.5,-835.5 250.5,-835.5"/>
<text text-anchor="middle" x="322" y="-842.5" font-family="Helvetica,sans-Serif" font-size="10.00">Ogre::D3D11HardwareBuffer</text>
</a>
</g>
</g>
<!-- Node1&#45;&gt;Node3 -->
<g id="edge2" class="edge"><title>Node1&#45;&gt;Node3</title>
<path fill="none" stroke="midnightblue" d="M161.256,-646.702C168.937,-686.77 192.018,-778.009 249,-826 253.549,-829.831 258.787,-832.898 264.321,-835.353"/>
<polygon fill="midnightblue" stroke="midnightblue" points="164.659,-645.854 159.448,-636.629 157.769,-647.09 164.659,-645.854"/>
</g>
<!-- Node4 -->
<g id="node4" class="node"><title>Node4</title>
<g id="a_node4"><a xlink:href="class_ogre_1_1_hardware_counter_buffer.html" target="_top" xlink:title="Specialisation of HardwareBuffer for a counter buffer. ">
<polygon fill="none" stroke="black" points="249,-797.5 249,-816.5 395,-816.5 395,-797.5 249,-797.5"/>
<text text-anchor="middle" x="322" y="-804.5" font-family="Helvetica,sans-Serif" font-size="10.00">Ogre::HardwareCounterBuffer</text>
</a>
</g>
</g>
<!-- Node1&#45;&gt;Node4 -->
<g id="edge3" class="edge"><title>Node1&#45;&gt;Node4</title>
<path fill="none" stroke="midnightblue" d="M173.588,-644.214C207.25,-681.386 285.824,-768.155 312.193,-797.275"/>
<polygon fill="midnightblue" stroke="midnightblue" points="176.07,-641.741 166.764,-636.678 170.882,-646.439 176.07,-641.741"/>
</g>
<!-- Node7 -->
<g id="node7" class="node"><title>Node7</title>
<g id="a_node7"><a xlink:href="class_ogre_1_1_hardware_index_buffer.html" target="_top" xlink:title="Specialisation of HardwareBuffer for vertex index buffers, still abstract. ">
<polygon fill="none" stroke="black" points="254,-685.5 254,-704.5 390,-704.5 390,-685.5 254,-685.5"/>
<text text-anchor="middle" x="322" y="-692.5" font-family="Helvetica,sans-Serif" font-size="10.00">Ogre::HardwareIndexBuffer</text>
</a>
</g>
</g>
<!-- Node1&#45;&gt;Node7 -->
<g id="edge6" class="edge"><title>Node1&#45;&gt;Node7</title>
<path fill="none" stroke="midnightblue" d="M190.338,-640.491C222.181,-653.775 270.01,-673.728 298.109,-685.45"/>
<polygon fill="midnightblue" stroke="midnightblue" points="191.585,-637.219 181.008,-636.599 188.89,-643.679 191.585,-637.219"/>
</g>
<!-- Node13 -->
<g id="node13" class="node"><title>Node13</title>
<g id="a_node13"><a xlink:href="class_ogre_1_1_hardware_pixel_buffer.html" target="_top" xlink:title="Specialisation of HardwareBuffer for a pixel buffer. ">
<polygon fill="none" stroke="black" points="255,-551.5 255,-570.5 389,-570.5 389,-551.5 255,-551.5"/>
<text text-anchor="middle" x="322" y="-558.5" font-family="Helvetica,sans-Serif" font-size="10.00">Ogre::HardwarePixelBuffer</text>
</a>
</g>
</g>
<!-- Node1&#45;&gt;Node13 -->
<g id="edge12" class="edge"><title>Node1&#45;&gt;Node13</title>
<path fill="none" stroke="midnightblue" d="M190.986,-613.644C222.609,-600.839 269.554,-581.831 297.534,-570.501"/>
<polygon fill="midnightblue" stroke="midnightblue" points="189.657,-610.406 181.702,-617.403 192.284,-616.894 189.657,-610.406"/>
</g>
<!-- Node26 -->
<g id="node26" class="node"><title>Node26</title>
<g id="a_node26"><a xlink:href="class_ogre_1_1_hardware_uniform_buffer.html" target="_top" xlink:title="Specialisation of HardwareBuffer for a uniform buffer. ">
<polygon fill="none" stroke="black" points="249,-362.5 249,-381.5 395,-381.5 395,-362.5 249,-362.5"/>
<text text-anchor="middle" x="322" y="-369.5" font-family="Helvetica,sans-Serif" font-size="10.00">Ogre::HardwareUniformBuffer</text>
</a>
</g>
</g>
<!-- Node1&#45;&gt;Node26 -->
<g id="edge25" class="edge"><title>Node1&#45;&gt;Node26</title>
<path fill="none" stroke="midnightblue" d="M169.653,-608.771C201.726,-558.595 290.536,-419.659 314.803,-381.695"/>
<polygon fill="midnightblue" stroke="midnightblue" points="166.628,-607.004 164.191,-617.315 172.526,-610.774 166.628,-607.004"/>
</g>
<!-- Node32 -->
<g id="node32" class="node"><title>Node32</title>
<g id="a_node32"><a xlink:href="class_ogre_1_1_hardware_vertex_buffer.html" target="_top" xlink:title="Specialisation of HardwareBuffer for a vertex buffer. ">
<polygon fill="none" stroke="black" points="252,-118.5 252,-137.5 392,-137.5 392,-118.5 252,-118.5"/>
<text text-anchor="middle" x="322" y="-125.5" font-family="Helvetica,sans-Serif" font-size="10.00">Ogre::HardwareVertexBuffer</text>
</a>
</g>
</g>
<!-- Node1&#45;&gt;Node32 -->
<g id="edge31" class="edge"><title>Node1&#45;&gt;Node32</title>
<path fill="none" stroke="midnightblue" d="M164.266,-607.817C191.382,-524.806 298.132,-198.008 317.857,-137.623"/>
<polygon fill="midnightblue" stroke="midnightblue" points="160.889,-606.885 161.111,-617.477 167.543,-609.058 160.889,-606.885"/>
</g>
<!-- Node2 -->
<g id="node2" class="node"><title>Node2</title>
<g id="a_node2"><a xlink:href="class_ogre_1_1_allocated_object.html" target="_top" xlink:title="Superclass for all objects that wish to use custom memory allocators when their new / delete operator...">
<polygon fill="none" stroke="black" points="0,-617.5 0,-636.5 65,-636.5 65,-617.5 0,-617.5"/>
<text text-anchor="middle" x="32.5" y="-624.5" font-family="Helvetica,sans-Serif" font-size="10.00">BufferAlloc</text>
</a>
</g>
</g>
<!-- Node2&#45;&gt;Node1 -->
<g id="edge1" class="edge"><title>Node2&#45;&gt;Node1</title>
<path fill="none" stroke="midnightblue" d="M75.1571,-627C83.4035,-627 92.1796,-627 100.795,-627"/>
<polygon fill="midnightblue" stroke="midnightblue" points="75.0468,-623.5 65.0468,-627 75.0468,-630.5 75.0468,-623.5"/>
</g>
<!-- Node5 -->
<g id="node5" class="node"><title>Node5</title>
<g id="a_node5"><a xlink:href="class_ogre_1_1_default_hardware_counter_buffer.html" target="_top" xlink:title="Specialisation of HardwareCounterBuffer for emulation. ">
<polygon fill="none" stroke="black" points="435.5,-891 435.5,-921 587.5,-921 587.5,-891 435.5,-891"/>
<text text-anchor="start" x="443.5" y="-909" font-family="Helvetica,sans-Serif" font-size="10.00">Ogre::DefaultHardwareCounter</text>
<text text-anchor="middle" x="511.5" y="-898" font-family="Helvetica,sans-Serif" font-size="10.00">Buffer</text>
</a>
</g>
</g>
<!-- Node4&#45;&gt;Node5 -->
<g id="edge4" class="edge"><title>Node4&#45;&gt;Node5</title>
<path fill="none" stroke="midnightblue" d="M386.495,-820.783C389.47,-822.34 392.326,-824.072 395,-826 418.699,-843.085 407.706,-863.367 431,-881 436.076,-884.842 441.755,-888.102 447.681,-890.867"/>
<polygon fill="midnightblue" stroke="midnightblue" points="387.831,-817.546 377.277,-816.621 384.951,-823.926 387.831,-817.546"/>
</g>
<!-- Node6 -->
<g id="node6" class="node"><title>Node6</title>
<g id="a_node6"><a xlink:href="class_ogre_1_1_g_l3_plus_hardware_counter_buffer.html" target="_top" xlink:title="Specialisation of HardwareCounterBuffer for OpenGL. ">
<polygon fill="none" stroke="black" points="432.5,-842 432.5,-872 590.5,-872 590.5,-842 432.5,-842"/>
<text text-anchor="start" x="440.5" y="-860" font-family="Helvetica,sans-Serif" font-size="10.00">Ogre::GL3PlusHardwareCounter</text>
<text text-anchor="middle" x="511.5" y="-849" font-family="Helvetica,sans-Serif" font-size="10.00">Buffer</text>
</a>
</g>
</g>
<!-- Node4&#45;&gt;Node6 -->
<g id="edge5" class="edge"><title>Node4&#45;&gt;Node6</title>
<path fill="none" stroke="midnightblue" d="M369.159,-819.15C377.751,-821.42 386.649,-823.777 395,-826 414.461,-831.18 435.757,-836.885 454.703,-841.973"/>
<polygon fill="midnightblue" stroke="midnightblue" points="369.829,-815.707 359.267,-816.539 368.042,-822.475 369.829,-815.707"/>
</g>
<!-- Node8 -->
<g id="node8" class="node"><title>Node8</title>
<g id="a_node8"><a xlink:href="class_ogre_1_1_d3_d11_hardware_index_buffer.html" target="_top" xlink:title="Ogre::D3D11HardwareIndex\lBuffer">
<polygon fill="none" stroke="black" points="441.5,-793 441.5,-823 581.5,-823 581.5,-793 441.5,-793"/>
<text text-anchor="start" x="449.5" y="-811" font-family="Helvetica,sans-Serif" font-size="10.00">Ogre::D3D11HardwareIndex</text>
<text text-anchor="middle" x="511.5" y="-800" font-family="Helvetica,sans-Serif" font-size="10.00">Buffer</text>
</a>
</g>
</g>
<!-- Node7&#45;&gt;Node8 -->
<g id="edge7" class="edge"><title>Node7&#45;&gt;Node8</title>
<path fill="none" stroke="midnightblue" d="M339.297,-711.691C359.265,-731.281 394.909,-763.555 431,-783 438.006,-786.774 445.67,-790.081 453.388,-792.947"/>
<polygon fill="midnightblue" stroke="midnightblue" points="341.761,-709.205 332.21,-704.62 336.817,-714.161 341.761,-709.205"/>
</g>
<!-- Node9 -->
<g id="node9" class="node"><title>Node9</title>
<g id="a_node9"><a xlink:href="class_ogre_1_1_d3_d9_hardware_index_buffer.html" target="_top" xlink:title="Ogre::D3D9HardwareIndexBuffer">
<polygon fill="none" stroke="black" points="431,-754.5 431,-773.5 592,-773.5 592,-754.5 431,-754.5"/>
<text text-anchor="middle" x="511.5" y="-761.5" font-family="Helvetica,sans-Serif" font-size="10.00">Ogre::D3D9HardwareIndexBuffer</text>
</a>
</g>
</g>
<!-- Node7&#45;&gt;Node9 -->
<g id="edge8" class="edge"><title>Node7&#45;&gt;Node9</title>
<path fill="none" stroke="midnightblue" d="M350.49,-709.132C371.988,-719.775 402.851,-734.163 431,-744 442.42,-747.991 455.021,-751.536 466.76,-754.492"/>
<polygon fill="midnightblue" stroke="midnightblue" points="351.823,-705.886 341.314,-704.536 348.688,-712.144 351.823,-705.886"/>
</g>
<!-- Node10 -->
<g id="node10" class="node"><title>Node10</title>
<g id="a_node10"><a xlink:href="class_ogre_1_1_default_hardware_index_buffer.html" target="_top" xlink:title="Specialisation of HardwareIndexBuffer for emulation. ">
<polygon fill="none" stroke="black" points="441,-705 441,-735 582,-735 582,-705 441,-705"/>
<text text-anchor="start" x="449" y="-723" font-family="Helvetica,sans-Serif" font-size="10.00">Ogre::DefaultHardwareIndex</text>
<text text-anchor="middle" x="511.5" y="-712" font-family="Helvetica,sans-Serif" font-size="10.00">Buffer</text>
</a>
</g>
</g>
<!-- Node7&#45;&gt;Node10 -->
<g id="edge9" class="edge"><title>Node7&#45;&gt;Node10</title>
<path fill="none" stroke="midnightblue" d="M400.345,-705.313C413.804,-707.107 427.728,-708.964 440.962,-710.728"/>
<polygon fill="midnightblue" stroke="midnightblue" points="400.537,-701.807 390.162,-703.955 399.612,-708.746 400.537,-701.807"/>
</g>
<!-- Node11 -->
<g id="node11" class="node"><title>Node11</title>
<g id="a_node11"><a xlink:href="class_ogre_1_1_g_l3_plus_hardware_index_buffer.html" target="_top" xlink:title="Ogre::GL3PlusHardwareIndex\lBuffer">
<polygon fill="none" stroke="black" points="438,-656 438,-686 585,-686 585,-656 438,-656"/>
<text text-anchor="start" x="446" y="-674" font-family="Helvetica,sans-Serif" font-size="10.00">Ogre::GL3PlusHardwareIndex</text>
<text text-anchor="middle" x="511.5" y="-663" font-family="Helvetica,sans-Serif" font-size="10.00">Buffer</text>
</a>
</g>
</g>
<!-- Node7&#45;&gt;Node11 -->
<g id="edge10" class="edge"><title>Node7&#45;&gt;Node11</title>
<path fill="none" stroke="midnightblue" d="M400.43,-685.089C412.787,-683.507 425.534,-681.876 437.776,-680.309"/>
<polygon fill="midnightblue" stroke="midnightblue" points="399.637,-681.662 390.162,-686.403 400.526,-688.605 399.637,-681.662"/>
</g>
<!-- Node12 -->
<g id="node12" class="node"><title>Node12</title>
<g id="a_node12"><a xlink:href="class_ogre_1_1_g_l_hardware_index_buffer.html" target="_top" xlink:title="Ogre::GLHardwareIndexBuffer">
<polygon fill="none" stroke="black" points="437,-617.5 437,-636.5 586,-636.5 586,-617.5 437,-617.5"/>
<text text-anchor="middle" x="511.5" y="-624.5" font-family="Helvetica,sans-Serif" font-size="10.00">Ogre::GLHardwareIndexBuffer</text>
</a>
</g>
</g>
<!-- Node7&#45;&gt;Node12 -->
<g id="edge11" class="edge"><title>Node7&#45;&gt;Node12</title>
<path fill="none" stroke="midnightblue" d="M350.457,-680.773C371.938,-670.08 402.794,-655.67 431,-646 441.471,-642.41 452.941,-639.244 463.83,-636.577"/>
<polygon fill="midnightblue" stroke="midnightblue" points="348.644,-677.767 341.29,-685.394 351.795,-684.018 348.644,-677.767"/>
</g>
<!-- Node14 -->
<g id="node14" class="node"><title>Node14</title>
<g id="a_node14"><a xlink:href="class_ogre_1_1_d3_d11_hardware_pixel_buffer.html" target="_top" xlink:title="Ogre::D3D11HardwarePixel\lBuffer">
<polygon fill="none" stroke="black" points="442.5,-568 442.5,-598 580.5,-598 580.5,-568 442.5,-568"/>
<text text-anchor="start" x="450.5" y="-586" font-family="Helvetica,sans-Serif" font-size="10.00">Ogre::D3D11HardwarePixel</text>
<text text-anchor="middle" x="511.5" y="-575" font-family="Helvetica,sans-Serif" font-size="10.00">Buffer</text>
</a>
</g>
</g>
<!-- Node13&#45;&gt;Node14 -->
<g id="edge13" class="edge"><title>Node13&#45;&gt;Node14</title>
<path fill="none" stroke="midnightblue" d="M399.375,-569.961C413.641,-571.635 428.462,-573.374 442.456,-575.016"/>
<polygon fill="midnightblue" stroke="midnightblue" points="399.445,-566.446 389.105,-568.756 398.629,-573.398 399.445,-566.446"/>
</g>
<!-- Node15 -->
<g id="node15" class="node"><title>Node15</title>
<g id="a_node15"><a xlink:href="class_ogre_1_1_d3_d9_hardware_pixel_buffer.html" target="_top" xlink:title="Ogre::D3D9HardwarePixelBuffer">
<polygon fill="none" stroke="black" points="432,-529.5 432,-548.5 591,-548.5 591,-529.5 432,-529.5"/>
<text text-anchor="middle" x="511.5" y="-536.5" font-family="Helvetica,sans-Serif" font-size="10.00">Ogre::D3D9HardwarePixelBuffer</text>
</a>
</g>
</g>
<!-- Node13&#45;&gt;Node15 -->
<g id="edge14" class="edge"><title>Node13&#45;&gt;Node15</title>
<path fill="none" stroke="midnightblue" d="M399.276,-552.05C410.006,-550.791 421.051,-549.495 431.825,-548.231"/>
<polygon fill="midnightblue" stroke="midnightblue" points="398.629,-548.602 389.105,-553.244 399.445,-555.554 398.629,-548.602"/>
</g>
<!-- Node16 -->
<g id="node16" class="node"><title>Node16</title>
<g id="a_node16"><a xlink:href="class_ogre_1_1_g_l_hardware_pixel_buffer_common.html" target="_top" xlink:title="Ogre::GLHardwarePixelBuffer\lCommon">
<polygon fill="none" stroke="black" points="438.5,-480 438.5,-510 584.5,-510 584.5,-480 438.5,-480"/>
<text text-anchor="start" x="446.5" y="-498" font-family="Helvetica,sans-Serif" font-size="10.00">Ogre::GLHardwarePixelBuffer</text>
<text text-anchor="middle" x="511.5" y="-487" font-family="Helvetica,sans-Serif" font-size="10.00">Common</text>
</a>
</g>
</g>
<!-- Node13&#45;&gt;Node16 -->
<g id="edge15" class="edge"><title>Node13&#45;&gt;Node16</title>
<path fill="none" stroke="midnightblue" d="M356.41,-547.742C377.655,-539.454 405.808,-528.734 431,-520 440.706,-516.635 451.143,-513.213 461.159,-510.025"/>
<polygon fill="midnightblue" stroke="midnightblue" points="354.909,-544.571 346.875,-551.479 357.463,-551.088 354.909,-544.571"/>
</g>
<!-- Node17 -->
<g id="node17" class="node"><title>Node17</title>
<g id="a_node17"><a xlink:href="class_ogre_1_1_g_l3_plus_hardware_pixel_buffer.html" target="_top" xlink:title="Ogre::GL3PlusHardwarePixel\lBuffer">
<polygon fill="none" stroke="black" points="628.5,-539 628.5,-569 773.5,-569 773.5,-539 628.5,-539"/>
<text text-anchor="start" x="636.5" y="-557" font-family="Helvetica,sans-Serif" font-size="10.00">Ogre::GL3PlusHardwarePixel</text>
<text text-anchor="middle" x="701" y="-546" font-family="Helvetica,sans-Serif" font-size="10.00">Buffer</text>
</a>
</g>
</g>
<!-- Node16&#45;&gt;Node17 -->
<g id="edge16" class="edge"><title>Node16&#45;&gt;Node17</title>
<path fill="none" stroke="midnightblue" d="M570.305,-513.175C577.608,-515.472 584.979,-517.791 592,-520 611.688,-526.195 633.395,-533.028 652.152,-538.933"/>
<polygon fill="midnightblue" stroke="midnightblue" points="571.015,-509.73 560.426,-510.068 568.915,-516.407 571.015,-509.73"/>
</g>
<!-- Node20 -->
<g id="node20" class="node"><title>Node20</title>
<g id="a_node20"><a xlink:href="class_ogre_1_1_g_l_e_s2_hardware_pixel_buffer.html" target="_top" xlink:title="Ogre::GLES2HardwarePixel\lBuffer">
<polygon fill="none" stroke="black" points="631.5,-480 631.5,-510 770.5,-510 770.5,-480 631.5,-480"/>
<text text-anchor="start" x="639.5" y="-498" font-family="Helvetica,sans-Serif" font-size="10.00">Ogre::GLES2HardwarePixel</text>
<text text-anchor="middle" x="701" y="-487" font-family="Helvetica,sans-Serif" font-size="10.00">Buffer</text>
</a>
</g>
</g>
<!-- Node16&#45;&gt;Node20 -->
<g id="edge19" class="edge"><title>Node16&#45;&gt;Node20</title>
<path fill="none" stroke="midnightblue" d="M594.841,-495C606.98,-495 619.377,-495 631.203,-495"/>
<polygon fill="midnightblue" stroke="midnightblue" points="594.724,-491.5 584.724,-495 594.724,-498.5 594.724,-491.5"/>
</g>
<!-- Node23 -->
<g id="node23" class="node"><title>Node23</title>
<g id="a_node23"><a xlink:href="class_ogre_1_1_g_l_hardware_pixel_buffer.html" target="_top" xlink:title="Ogre::GLHardwarePixelBuffer">
<polygon fill="none" stroke="black" points="628,-430.5 628,-449.5 774,-449.5 774,-430.5 628,-430.5"/>
<text text-anchor="middle" x="701" y="-437.5" font-family="Helvetica,sans-Serif" font-size="10.00">Ogre::GLHardwarePixelBuffer</text>
</a>
</g>
</g>
<!-- Node16&#45;&gt;Node23 -->
<g id="edge22" class="edge"><title>Node16&#45;&gt;Node23</title>
<path fill="none" stroke="midnightblue" d="M573.659,-477.06C604.886,-467.9 641.622,-457.124 667.407,-449.561"/>
<polygon fill="midnightblue" stroke="midnightblue" points="572.346,-473.798 563.735,-479.971 574.316,-480.515 572.346,-473.798"/>
</g>
<!-- Node18 -->
<g id="node18" class="node"><title>Node18</title>
<g id="a_node18"><a xlink:href="class_ogre_1_1_g_l3_plus_render_buffer.html" target="_top" xlink:title="Renderbuffer surface. ">
<polygon fill="none" stroke="black" points="810.5,-582.5 810.5,-601.5 949.5,-601.5 949.5,-582.5 810.5,-582.5"/>
<text text-anchor="middle" x="880" y="-589.5" font-family="Helvetica,sans-Serif" font-size="10.00">Ogre::GL3PlusRenderBuffer</text>
</a>
</g>
</g>
<!-- Node17&#45;&gt;Node18 -->
<g id="edge17" class="edge"><title>Node17&#45;&gt;Node18</title>
<path fill="none" stroke="midnightblue" d="M781.964,-571.167C800.104,-575.062 818.727,-579.06 834.746,-582.499"/>
<polygon fill="midnightblue" stroke="midnightblue" points="782.467,-567.696 771.955,-569.019 780.998,-574.54 782.467,-567.696"/>
</g>
<!-- Node19 -->
<g id="node19" class="node"><title>Node19</title>
<g id="a_node19"><a xlink:href="class_ogre_1_1_g_l3_plus_texture_buffer.html" target="_top" xlink:title="Texture surface. ">
<polygon fill="none" stroke="black" points="810,-544.5 810,-563.5 950,-563.5 950,-544.5 810,-544.5"/>
<text text-anchor="middle" x="880" y="-551.5" font-family="Helvetica,sans-Serif" font-size="10.00">Ogre::GL3PlusTextureBuffer</text>
</a>
</g>
</g>
<!-- Node17&#45;&gt;Node19 -->
<g id="edge18" class="edge"><title>Node17&#45;&gt;Node19</title>
<path fill="none" stroke="midnightblue" d="M783.843,-554C792.502,-554 801.246,-554 809.741,-554"/>
<polygon fill="midnightblue" stroke="midnightblue" points="783.738,-550.5 773.738,-554 783.737,-557.5 783.738,-550.5"/>
</g>
<!-- Node21 -->
<g id="node21" class="node"><title>Node21</title>
<g id="a_node21"><a xlink:href="class_ogre_1_1_g_l_e_s2_render_buffer.html" target="_top" xlink:title="Renderbuffer surface. ">
<polygon fill="none" stroke="black" points="813.5,-506.5 813.5,-525.5 946.5,-525.5 946.5,-506.5 813.5,-506.5"/>
<text text-anchor="middle" x="880" y="-513.5" font-family="Helvetica,sans-Serif" font-size="10.00">Ogre::GLES2RenderBuffer</text>
</a>
</g>
</g>
<!-- Node20&#45;&gt;Node21 -->
<g id="edge20" class="edge"><title>Node20&#45;&gt;Node21</title>
<path fill="none" stroke="midnightblue" d="M780.621,-504.328C791.521,-505.621 802.624,-506.938 813.257,-508.2"/>
<polygon fill="midnightblue" stroke="midnightblue" points="781.029,-500.852 770.686,-503.149 780.204,-507.803 781.029,-500.852"/>
</g>
<!-- Node22 -->
<g id="node22" class="node"><title>Node22</title>
<g id="a_node22"><a xlink:href="class_ogre_1_1_g_l_e_s2_texture_buffer.html" target="_top" xlink:title="Texture surface. ">
<polygon fill="none" stroke="black" points="813,-468.5 813,-487.5 947,-487.5 947,-468.5 813,-468.5"/>
<text text-anchor="middle" x="880" y="-475.5" font-family="Helvetica,sans-Serif" font-size="10.00">Ogre::GLES2TextureBuffer</text>
</a>
</g>
</g>
<!-- Node20&#45;&gt;Node22 -->
<g id="edge21" class="edge"><title>Node20&#45;&gt;Node22</title>
<path fill="none" stroke="midnightblue" d="M780.882,-487.424C791.6,-486.394 802.508,-485.347 812.967,-484.342"/>
<polygon fill="midnightblue" stroke="midnightblue" points="780.306,-483.963 770.686,-488.403 780.975,-490.931 780.306,-483.963"/>
</g>
<!-- Node24 -->
<g id="node24" class="node"><title>Node24</title>
<g id="a_node24"><a xlink:href="class_ogre_1_1_g_l_render_buffer.html" target="_top" xlink:title="Renderbuffer surface. ">
<polygon fill="none" stroke="black" points="823,-430.5 823,-449.5 937,-449.5 937,-430.5 823,-430.5"/>
<text text-anchor="middle" x="880" y="-437.5" font-family="Helvetica,sans-Serif" font-size="10.00">Ogre::GLRenderBuffer</text>
</a>
</g>
</g>
<!-- Node23&#45;&gt;Node24 -->
<g id="edge23" class="edge"><title>Node23&#45;&gt;Node24</title>
<path fill="none" stroke="midnightblue" d="M784.611,-440C797.605,-440 810.769,-440 822.976,-440"/>
<polygon fill="midnightblue" stroke="midnightblue" points="784.248,-436.5 774.248,-440 784.248,-443.5 784.248,-436.5"/>
</g>
<!-- Node25 -->
<g id="node25" class="node"><title>Node25</title>
<g id="a_node25"><a xlink:href="class_ogre_1_1_g_l_texture_buffer.html" target="_top" xlink:title="Texture surface. ">
<polygon fill="none" stroke="black" points="822,-392.5 822,-411.5 938,-411.5 938,-392.5 822,-392.5"/>
<text text-anchor="middle" x="880" y="-399.5" font-family="Helvetica,sans-Serif" font-size="10.00">Ogre::GLTextureBuffer</text>
</a>
</g>
</g>
<!-- Node23&#45;&gt;Node25 -->
<g id="edge24" class="edge"><title>Node23&#45;&gt;Node25</title>
<path fill="none" stroke="midnightblue" d="M756.742,-428.247C781.77,-422.874 811.035,-416.591 834.657,-411.52"/>
<polygon fill="midnightblue" stroke="midnightblue" points="755.707,-424.89 746.665,-430.411 757.176,-431.734 755.707,-424.89"/>
</g>
<!-- Node27 -->
<g id="node27" class="node"><title>Node27</title>
<g id="a_node27"><a xlink:href="class_ogre_1_1_d3_d11_hardware_uniform_buffer.html" target="_top" xlink:title="Specialisation of HardwareBuffer for D3D11. ">
<polygon fill="none" stroke="black" points="436,-431 436,-461 587,-461 587,-431 436,-431"/>
<text text-anchor="start" x="444" y="-449" font-family="Helvetica,sans-Serif" font-size="10.00">Ogre::D3D11HardwareUniform</text>
<text text-anchor="middle" x="511.5" y="-438" font-family="Helvetica,sans-Serif" font-size="10.00">Buffer</text>
</a>
</g>
</g>
<!-- Node26&#45;&gt;Node27 -->
<g id="edge26" class="edge"><title>Node26&#45;&gt;Node27</title>
<path fill="none" stroke="midnightblue" d="M351.438,-386.046C372.987,-396.408 403.483,-410.476 431,-421 440.054,-424.463 449.815,-427.826 459.291,-430.903"/>
<polygon fill="midnightblue" stroke="midnightblue" points="352.735,-382.786 342.21,-381.572 349.681,-389.084 352.735,-382.786"/>
</g>
<!-- Node28 -->
<g id="node28" class="node"><title>Node28</title>
<g id="a_node28"><a xlink:href="class_ogre_1_1_default_hardware_uniform_buffer.html" target="_top" xlink:title="Specialisation of HardwareUniformBuffer for emulation. ">
<polygon fill="none" stroke="black" points="435.5,-382 435.5,-412 587.5,-412 587.5,-382 435.5,-382"/>
<text text-anchor="start" x="443.5" y="-400" font-family="Helvetica,sans-Serif" font-size="10.00">Ogre::DefaultHardwareUniform</text>
<text text-anchor="middle" x="511.5" y="-389" font-family="Helvetica,sans-Serif" font-size="10.00">Buffer</text>
</a>
</g>
</g>
<!-- Node26&#45;&gt;Node28 -->
<g id="edge27" class="edge"><title>Node26&#45;&gt;Node28</title>
<path fill="none" stroke="midnightblue" d="M404.535,-382.871C414.734,-384.231 425.128,-385.617 435.225,-386.963"/>
<polygon fill="midnightblue" stroke="midnightblue" points="404.795,-379.375 394.421,-381.523 403.87,-386.314 404.795,-379.375"/>
</g>
<!-- Node29 -->
<g id="node29" class="node"><title>Node29</title>
<g id="a_node29"><a xlink:href="class_ogre_1_1_g_l3_plus_hardware_shader_storage_buffer.html" target="_top" xlink:title="Specialisation of HardwareUniformBuffer for the OpenGL Shader Storage Buffer. ">
<polygon fill="none" stroke="black" points="434.5,-333 434.5,-363 588.5,-363 588.5,-333 434.5,-333"/>
<text text-anchor="start" x="442.5" y="-351" font-family="Helvetica,sans-Serif" font-size="10.00">Ogre::GL3PlusHardwareShader</text>
<text text-anchor="middle" x="511.5" y="-340" font-family="Helvetica,sans-Serif" font-size="10.00">StorageBuffer</text>
</a>
</g>
</g>
<!-- Node26&#45;&gt;Node29 -->
<g id="edge28" class="edge"><title>Node26&#45;&gt;Node29</title>
<path fill="none" stroke="midnightblue" d="M405.213,-361.477C414.873,-360.24 424.699,-358.982 434.272,-357.757"/>
<polygon fill="midnightblue" stroke="midnightblue" points="404.699,-358.014 395.224,-362.755 405.588,-364.957 404.699,-358.014"/>
</g>
<!-- Node30 -->
<g id="node30" class="node"><title>Node30</title>
<g id="a_node30"><a xlink:href="class_ogre_1_1_g_l3_plus_hardware_uniform_buffer.html" target="_top" xlink:title="Specialisation of HardwareUniformBuffer for OpenGL. ">
<polygon fill="none" stroke="black" points="432.5,-284 432.5,-314 590.5,-314 590.5,-284 432.5,-284"/>
<text text-anchor="start" x="440.5" y="-302" font-family="Helvetica,sans-Serif" font-size="10.00">Ogre::GL3PlusHardwareUniform</text>
<text text-anchor="middle" x="511.5" y="-291" font-family="Helvetica,sans-Serif" font-size="10.00">Buffer</text>
</a>
</g>
</g>
<!-- Node26&#45;&gt;Node30 -->
<g id="edge29" class="edge"><title>Node26&#45;&gt;Node30</title>
<path fill="none" stroke="midnightblue" d="M351.403,-357.861C372.934,-347.452 403.423,-333.366 431,-323 439.367,-319.855 448.344,-316.825 457.146,-314.04"/>
<polygon fill="midnightblue" stroke="midnightblue" points="349.637,-354.829 342.183,-362.359 352.706,-361.12 349.637,-354.829"/>
</g>
<!-- Node31 -->
<g id="node31" class="node"><title>Node31</title>
<g id="a_node31"><a xlink:href="class_ogre_1_1_g_l_e_s2_hardware_uniform_buffer.html" target="_top" xlink:title="Specialisation of HardwareUniformBuffer for OpenGL. ">
<polygon fill="none" stroke="black" points="435.5,-235 435.5,-265 587.5,-265 587.5,-235 435.5,-235"/>
<text text-anchor="start" x="443.5" y="-253" font-family="Helvetica,sans-Serif" font-size="10.00">Ogre::GLES2HardwareUniform</text>
<text text-anchor="middle" x="511.5" y="-242" font-family="Helvetica,sans-Serif" font-size="10.00">Buffer</text>
</a>
</g>
</g>
<!-- Node26&#45;&gt;Node31 -->
<g id="edge30" class="edge"><title>Node26&#45;&gt;Node31</title>
<path fill="none" stroke="midnightblue" d="M337.665,-354.591C356.948,-332.758 392.874,-295.579 431,-274 437.023,-270.591 443.582,-267.617 450.264,-265.034"/>
<polygon fill="midnightblue" stroke="midnightblue" points="334.801,-352.551 330.9,-362.402 340.093,-357.134 334.801,-352.551"/>
</g>
<!-- Node33 -->
<g id="node33" class="node"><title>Node33</title>
<g id="a_node33"><a xlink:href="class_ogre_1_1_d3_d11_hardware_vertex_buffer.html" target="_top" xlink:title="Specialisation of HardwareVertexBuffer for D3D11. ">
<polygon fill="none" stroke="black" points="439,-186 439,-216 584,-216 584,-186 439,-186"/>
<text text-anchor="start" x="447" y="-204" font-family="Helvetica,sans-Serif" font-size="10.00">Ogre::D3D11HardwareVertex</text>
<text text-anchor="middle" x="511.5" y="-193" font-family="Helvetica,sans-Serif" font-size="10.00">Buffer</text>
</a>
</g>
</g>
<!-- Node32&#45;&gt;Node33 -->
<g id="edge32" class="edge"><title>Node32&#45;&gt;Node33</title>
<path fill="none" stroke="midnightblue" d="M351.863,-141.902C373.405,-152.013 403.704,-165.681 431,-176 440.203,-179.479 450.126,-182.874 459.737,-185.984"/>
<polygon fill="midnightblue" stroke="midnightblue" points="353.16,-138.644 342.624,-137.531 350.167,-144.971 353.16,-138.644"/>
</g>
<!-- Node34 -->
<g id="node34" class="node"><title>Node34</title>
<g id="a_node34"><a xlink:href="class_ogre_1_1_d3_d9_hardware_vertex_buffer.html" target="_top" xlink:title="Specialisation of HardwareVertexBuffer for D3D9. ">
<polygon fill="none" stroke="black" points="441.5,-137 441.5,-167 581.5,-167 581.5,-137 441.5,-137"/>
<text text-anchor="start" x="449.5" y="-155" font-family="Helvetica,sans-Serif" font-size="10.00">Ogre::D3D9HardwareVertex</text>
<text text-anchor="middle" x="511.5" y="-144" font-family="Helvetica,sans-Serif" font-size="10.00">Buffer</text>
</a>
</g>
</g>
<!-- Node32&#45;&gt;Node34 -->
<g id="edge33" class="edge"><title>Node32&#45;&gt;Node34</title>
<path fill="none" stroke="midnightblue" d="M402.315,-138.152C415.279,-139.812 428.619,-141.519 441.313,-143.144"/>
<polygon fill="midnightblue" stroke="midnightblue" points="402.383,-134.633 392.019,-136.834 401.494,-141.576 402.383,-134.633"/>
</g>
<!-- Node35 -->
<g id="node35" class="node"><title>Node35</title>
<g id="a_node35"><a xlink:href="class_ogre_1_1_default_hardware_vertex_buffer.html" target="_top" xlink:title="Specialisation of HardwareVertexBuffer for emulation. ">
<polygon fill="none" stroke="black" points="438.5,-88 438.5,-118 584.5,-118 584.5,-88 438.5,-88"/>
<text text-anchor="start" x="446.5" y="-106" font-family="Helvetica,sans-Serif" font-size="10.00">Ogre::DefaultHardwareVertex</text>
<text text-anchor="middle" x="511.5" y="-95" font-family="Helvetica,sans-Serif" font-size="10.00">Buffer</text>
</a>
</g>
</g>
<!-- Node32&#45;&gt;Node35 -->
<g id="edge34" class="edge"><title>Node32&#45;&gt;Node35</title>
<path fill="none" stroke="midnightblue" d="M402.07,-117.457C414.151,-115.847 426.565,-114.191 438.483,-112.602"/>
<polygon fill="midnightblue" stroke="midnightblue" points="401.469,-114.006 392.019,-118.797 402.394,-120.945 401.469,-114.006"/>
</g>
<!-- Node36 -->
<g id="node36" class="node"><title>Node36</title>
<g id="a_node36"><a xlink:href="class_ogre_1_1_g_l3_plus_hardware_vertex_buffer.html" target="_top" xlink:title="Specialisation of HardwareVertexBuffer for OpenGL. ">
<polygon fill="none" stroke="black" points="435.5,-39 435.5,-69 587.5,-69 587.5,-39 435.5,-39"/>
<text text-anchor="start" x="443.5" y="-57" font-family="Helvetica,sans-Serif" font-size="10.00">Ogre::GL3PlusHardwareVertex</text>
<text text-anchor="middle" x="511.5" y="-46" font-family="Helvetica,sans-Serif" font-size="10.00">Buffer</text>
</a>
</g>
</g>
<!-- Node32&#45;&gt;Node36 -->
<g id="edge35" class="edge"><title>Node32&#45;&gt;Node36</title>
<path fill="none" stroke="midnightblue" d="M350.98,-113.725C372.514,-103.064 403.199,-88.572 431,-78 439.22,-74.8741 448.037,-71.8752 456.699,-69.1202"/>
<polygon fill="midnightblue" stroke="midnightblue" points="349.153,-110.725 341.772,-118.326 352.282,-116.987 349.153,-110.725"/>
</g>
<!-- Node37 -->
<g id="node37" class="node"><title>Node37</title>
<g id="a_node37"><a xlink:href="class_ogre_1_1_g_l_hardware_vertex_buffer.html" target="_top" xlink:title="Specialisation of HardwareVertexBuffer for OpenGL. ">
<polygon fill="none" stroke="black" points="435,-0.5 435,-19.5 588,-19.5 588,-0.5 435,-0.5"/>
<text text-anchor="middle" x="511.5" y="-7.5" font-family="Helvetica,sans-Serif" font-size="10.00">Ogre::GLHardwareVertexBuffer</text>
</a>
</g>
</g>
<!-- Node32&#45;&gt;Node37 -->
<g id="edge36" class="edge"><title>Node32&#45;&gt;Node37</title>
<path fill="none" stroke="midnightblue" d="M336.89,-110.688C355.785,-88.3368 391.76,-49.843 431,-29 438.269,-25.139 446.325,-22.0522 454.438,-19.5871"/>
<polygon fill="midnightblue" stroke="midnightblue" points="334.193,-108.458 330.514,-118.394 339.586,-112.921 334.193,-108.458"/>
</g>
</g>
</svg>
