<?xml version="1.0" encoding="UTF-8" standalone="no"?>
<!DOCTYPE svg PUBLIC "-//W3C//DTD SVG 1.1//EN"
 "http://www.w3.org/Graphics/SVG/1.1/DTD/svg11.dtd">
<!-- Generated by graphviz version 2.38.0 (20140413.2041)
 -->
<!-- Title: Graphical Class Hierarchy Pages: 1 -->
<svg width="501pt" height="85pt"
 viewBox="0.00 0.00 501.00 85.00" xmlns="http://www.w3.org/2000/svg" xmlns:xlink="http://www.w3.org/1999/xlink">
<g id="graph0" class="graph" transform="scale(1 1) rotate(0) translate(4 81)">
<title>Graphical Class Hierarchy</title>
<!-- Node1 -->
<g id="node1" class="node"><title>Node1</title>
<polygon fill="none" stroke="#bfbfbf" points="0,-38.5 0,-57.5 118,-57.5 118,-38.5 0,-38.5"/>
<text text-anchor="middle" x="59" y="-45.5" font-family="Helvetica,sans-Serif" font-size="10.00">GLSLProgramCommon</text>
</g>
<!-- Node2 -->
<g id="node2" class="node"><title>Node2</title>
<g id="a_node2"><a xlink:href="class_ogre_1_1_g_l_s_l_1_1_g_l_s_l_link_program.html" target="_top" xlink:title="C++ encapsulation of GLSL Program Object. ">
<polygon fill="none" stroke="black" points="154,-57.5 154,-76.5 308,-76.5 308,-57.5 154,-57.5"/>
<text text-anchor="middle" x="231" y="-64.5" font-family="Helvetica,sans-Serif" font-size="10.00">Ogre::GLSL::GLSLLinkProgram</text>
</a>
</g>
</g>
<!-- Node1&#45;&gt;Node2 -->
<g id="edge1" class="edge"><title>Node1&#45;&gt;Node2</title>
<path fill="none" stroke="midnightblue" d="M128.2,-55.6224C136.652,-56.567 145.335,-57.5374 153.896,-58.4942"/>
<polygon fill="midnightblue" stroke="midnightblue" points="128.356,-52.1181 118.029,-54.4856 127.578,-59.0747 128.356,-52.1181"/>
</g>
<!-- Node3 -->
<g id="node3" class="node"><title>Node3</title>
<g id="a_node3"><a xlink:href="class_ogre_1_1_g_l_s_l_program.html" target="_top" xlink:title="C++ encapsulation of GLSL program object. ">
<polygon fill="none" stroke="black" points="178.5,-19.5 178.5,-38.5 283.5,-38.5 283.5,-19.5 178.5,-19.5"/>
<text text-anchor="middle" x="231" y="-26.5" font-family="Helvetica,sans-Serif" font-size="10.00">Ogre::GLSLProgram</text>
</a>
</g>
</g>
<!-- Node1&#45;&gt;Node3 -->
<g id="edge2" class="edge"><title>Node1&#45;&gt;Node3</title>
<path fill="none" stroke="midnightblue" d="M128.312,-40.3652C145.052,-38.4942 162.692,-36.5227 178.493,-34.7566"/>
<polygon fill="midnightblue" stroke="midnightblue" points="127.578,-36.9253 118.029,-41.5144 128.356,-43.8819 127.578,-36.9253"/>
</g>
<!-- Node4 -->
<g id="node4" class="node"><title>Node4</title>
<g id="a_node4"><a xlink:href="class_ogre_1_1_g_l_s_l_monolithic_program.html" target="_top" xlink:title="Model of OpenGL program object created using the glLinkProgram method of linking. ...">
<polygon fill="none" stroke="black" points="344,-38.5 344,-57.5 493,-57.5 493,-38.5 344,-38.5"/>
<text text-anchor="middle" x="418.5" y="-45.5" font-family="Helvetica,sans-Serif" font-size="10.00">Ogre::GLSLMonolithicProgram</text>
</a>
</g>
</g>
<!-- Node3&#45;&gt;Node4 -->
<g id="edge3" class="edge"><title>Node3&#45;&gt;Node4</title>
<path fill="none" stroke="midnightblue" d="M293.973,-35.3476C309.986,-36.9878 327.38,-38.7694 343.923,-40.4638"/>
<polygon fill="midnightblue" stroke="midnightblue" points="293.977,-31.8298 283.672,-34.2926 293.263,-38.7934 293.977,-31.8298"/>
</g>
<!-- Node5 -->
<g id="node5" class="node"><title>Node5</title>
<g id="a_node5"><a xlink:href="class_ogre_1_1_g_l_s_l_separable_program.html" target="_top" xlink:title="Specialisation of GLSLProgram to provide support for separable programs via the OpenGL program pipeli...">
<polygon fill="none" stroke="black" points="344,-0.5 344,-19.5 493,-19.5 493,-0.5 344,-0.5"/>
<text text-anchor="middle" x="418.5" y="-7.5" font-family="Helvetica,sans-Serif" font-size="10.00">Ogre::GLSLSeparableProgram</text>
</a>
</g>
</g>
<!-- Node3&#45;&gt;Node5 -->
<g id="edge4" class="edge"><title>Node3&#45;&gt;Node5</title>
<path fill="none" stroke="midnightblue" d="M293.973,-22.6524C309.986,-21.0122 327.38,-19.2306 343.923,-17.5362"/>
<polygon fill="midnightblue" stroke="midnightblue" points="293.263,-19.2066 283.672,-23.7074 293.977,-26.1702 293.263,-19.2066"/>
</g>
</g>
</svg>
