<?xml version="1.0" encoding="UTF-8" standalone="no"?>
<!DOCTYPE svg PUBLIC "-//W3C//DTD SVG 1.1//EN"
 "http://www.w3.org/Graphics/SVG/1.1/DTD/svg11.dtd">
<!-- Generated by graphviz version 2.38.0 (20140413.2041)
 -->
<!-- Title: Graphical Class Hierarchy Pages: 1 -->
<svg width="577pt" height="323pt"
 viewBox="0.00 0.00 577.00 323.00" xmlns="http://www.w3.org/2000/svg" xmlns:xlink="http://www.w3.org/1999/xlink">
<g id="graph0" class="graph" transform="scale(1 1) rotate(0) translate(4 319)">
<title>Graphical Class Hierarchy</title>
<!-- Node1 -->
<g id="node1" class="node"><title>Node1</title>
<polygon fill="none" stroke="#bfbfbf" points="0,-192 0,-211 155,-211 155,-192 0,-192"/>
<text text-anchor="middle" x="77.5" y="-199" font-family="Helvetica,sans-Serif" font-size="10.00">GLSLProgramManagerCommon</text>
</g>
<!-- Node2 -->
<g id="node2" class="node"><title>Node2</title>
<g id="a_node2"><a xlink:href="class_ogre_1_1_g_l_s_l_1_1_g_l_s_l_link_program_manager.html" target="_top" xlink:title="Ogre::GLSL::GLSLLinkProgram\lManager">
<polygon fill="none" stroke="black" points="198,-284.5 198,-314.5 352,-314.5 352,-284.5 198,-284.5"/>
<text text-anchor="start" x="206" y="-302.5" font-family="Helvetica,sans-Serif" font-size="10.00">Ogre::GLSL::GLSLLinkProgram</text>
<text text-anchor="middle" x="275" y="-291.5" font-family="Helvetica,sans-Serif" font-size="10.00">Manager</text>
</a>
</g>
</g>
<!-- Node1&#45;&gt;Node2 -->
<g id="edge1" class="edge"><title>Node1&#45;&gt;Node2</title>
<path fill="none" stroke="midnightblue" d="M98.7116,-217.513C120.423,-234.043 156.475,-259.597 191,-275.5 198.221,-278.826 206.009,-281.804 213.821,-284.434"/>
<polygon fill="midnightblue" stroke="midnightblue" points="100.649,-214.587 90.5957,-211.243 96.3697,-220.127 100.649,-214.587"/>
</g>
<!-- Node3 -->
<g id="node3" class="node"><title>Node3</title>
<g id="a_node3"><a xlink:href="class_ogre_1_1_g_l_s_l_e_s_program_manager_common.html" target="_top" xlink:title="Ogre::GLSLESProgramManager\lCommon">
<polygon fill="none" stroke="black" points="197,-186.5 197,-216.5 353,-216.5 353,-186.5 197,-186.5"/>
<text text-anchor="start" x="205" y="-204.5" font-family="Helvetica,sans-Serif" font-size="10.00">Ogre::GLSLESProgramManager</text>
<text text-anchor="middle" x="275" y="-193.5" font-family="Helvetica,sans-Serif" font-size="10.00">Common</text>
</a>
</g>
</g>
<!-- Node1&#45;&gt;Node3 -->
<g id="edge2" class="edge"><title>Node1&#45;&gt;Node3</title>
<path fill="none" stroke="midnightblue" d="M165.24,-201.5C175.778,-201.5 186.488,-201.5 196.874,-201.5"/>
<polygon fill="midnightblue" stroke="midnightblue" points="165.206,-198 155.206,-201.5 165.206,-205 165.206,-198"/>
</g>
<!-- Node6 -->
<g id="node6" class="node"><title>Node6</title>
<g id="a_node6"><a xlink:href="class_ogre_1_1_g_l_s_l_program_manager.html" target="_top" xlink:title="Ogre::GLSLProgramManager">
<polygon fill="none" stroke="black" points="203.5,-50 203.5,-69 346.5,-69 346.5,-50 203.5,-50"/>
<text text-anchor="middle" x="275" y="-57" font-family="Helvetica,sans-Serif" font-size="10.00">Ogre::GLSLProgramManager</text>
</a>
</g>
</g>
<!-- Node1&#45;&gt;Node6 -->
<g id="edge5" class="edge"><title>Node1&#45;&gt;Node6</title>
<path fill="none" stroke="midnightblue" d="M89.9798,-183.07C107.998,-155.766 145.593,-104.952 191,-78.5 197.642,-74.6306 205.01,-71.5493 212.536,-69.0954"/>
<polygon fill="midnightblue" stroke="midnightblue" points="86.9139,-181.367 84.4422,-191.669 92.7991,-185.157 86.9139,-181.367"/>
</g>
<!-- Node4 -->
<g id="node4" class="node"><title>Node4</title>
<g id="a_node4"><a xlink:href="class_ogre_1_1_g_l_s_l_e_s_link_program_manager.html" target="_top" xlink:title="Ogre assumes that there are separate vertex and fragment programs to deal with but GLSL ES has one pr...">
<polygon fill="none" stroke="black" points="395,-216 395,-235 569,-235 569,-216 395,-216"/>
<text text-anchor="middle" x="482" y="-223" font-family="Helvetica,sans-Serif" font-size="10.00">Ogre::GLSLESLinkProgramManager</text>
</a>
</g>
</g>
<!-- Node3&#45;&gt;Node4 -->
<g id="edge3" class="edge"><title>Node3&#45;&gt;Node4</title>
<path fill="none" stroke="midnightblue" d="M363.289,-211.719C375.387,-213.136 387.775,-214.586 399.757,-215.989"/>
<polygon fill="midnightblue" stroke="midnightblue" points="363.549,-208.226 353.21,-210.539 362.735,-215.178 363.549,-208.226"/>
</g>
<!-- Node5 -->
<g id="node5" class="node"><title>Node5</title>
<g id="a_node5"><a xlink:href="class_ogre_1_1_g_l_s_l_e_s_program_pipeline_manager.html" target="_top" xlink:title="Ogre assumes that there are separate vertex and fragment programs to deal with but GLSL ES has one pr...">
<polygon fill="none" stroke="black" points="405.5,-142.5 405.5,-172.5 558.5,-172.5 558.5,-142.5 405.5,-142.5"/>
<text text-anchor="start" x="413.5" y="-160.5" font-family="Helvetica,sans-Serif" font-size="10.00">Ogre::GLSLESProgramPipeline</text>
<text text-anchor="middle" x="482" y="-149.5" font-family="Helvetica,sans-Serif" font-size="10.00">Manager</text>
</a>
</g>
</g>
<!-- Node3&#45;&gt;Node5 -->
<g id="edge4" class="edge"><title>Node3&#45;&gt;Node5</title>
<path fill="none" stroke="midnightblue" d="M355.95,-184.34C374.116,-180.441 393.276,-176.329 410.992,-172.526"/>
<polygon fill="midnightblue" stroke="midnightblue" points="355.019,-180.96 345.976,-186.481 356.488,-187.804 355.019,-180.96"/>
</g>
<!-- Node7 -->
<g id="node7" class="node"><title>Node7</title>
<g id="a_node7"><a xlink:href="class_ogre_1_1_g_l_s_l_monolithic_program_manager.html" target="_top" xlink:title="Ogre assumes that there are separate vertex and fragment programs to deal with but GLSL has one progr...">
<polygon fill="none" stroke="black" points="407.5,-83.5 407.5,-113.5 556.5,-113.5 556.5,-83.5 407.5,-83.5"/>
<text text-anchor="start" x="415.5" y="-101.5" font-family="Helvetica,sans-Serif" font-size="10.00">Ogre::GLSLMonolithicProgram</text>
<text text-anchor="middle" x="482" y="-90.5" font-family="Helvetica,sans-Serif" font-size="10.00">Manager</text>
</a>
</g>
</g>
<!-- Node6&#45;&gt;Node7 -->
<g id="edge6" class="edge"><title>Node6&#45;&gt;Node7</title>
<path fill="none" stroke="midnightblue" d="M336.145,-70.9422C358.441,-75.1839 383.982,-80.0429 407.346,-84.4877"/>
<polygon fill="midnightblue" stroke="midnightblue" points="336.627,-67.4711 326.149,-69.0405 335.318,-74.3478 336.627,-67.4711"/>
</g>
<!-- Node8 -->
<g id="node8" class="node"><title>Node8</title>
<g id="a_node8"><a xlink:href="class_ogre_1_1_g_l_s_l_separable_program_manager.html" target="_top" xlink:title="Ogre assumes that there are separate vertex and fragment programs to deal with but GLSL has one progr...">
<polygon fill="none" stroke="black" points="407.5,-15.5 407.5,-45.5 556.5,-45.5 556.5,-15.5 407.5,-15.5"/>
<text text-anchor="start" x="415.5" y="-33.5" font-family="Helvetica,sans-Serif" font-size="10.00">Ogre::GLSLSeparableProgram</text>
<text text-anchor="middle" x="482" y="-22.5" font-family="Helvetica,sans-Serif" font-size="10.00">Manager</text>
</a>
</g>
</g>
<!-- Node6&#45;&gt;Node8 -->
<g id="edge7" class="edge"><title>Node6&#45;&gt;Node8</title>
<path fill="none" stroke="midnightblue" d="M353.614,-48.5205C371.179,-46.0356 389.782,-43.404 407.185,-40.9421"/>
<polygon fill="midnightblue" stroke="midnightblue" points="352.82,-45.0979 343.409,-49.9641 353.8,-52.0289 352.82,-45.0979"/>
</g>
<!-- Node9 -->
<g id="node9" class="node"><title>Node9</title>
<g id="a_node9"><a xlink:href="class_ogre_1_1_singleton.html" target="_top" xlink:title="Ogre::Singleton\&lt; GLSLESLink\lProgramManager \&gt;">
<polygon fill="none" stroke="black" points="200.5,-235.5 200.5,-265.5 349.5,-265.5 349.5,-235.5 200.5,-235.5"/>
<text text-anchor="start" x="208.5" y="-253.5" font-family="Helvetica,sans-Serif" font-size="10.00">Ogre::Singleton&lt; GLSLESLink</text>
<text text-anchor="middle" x="275" y="-242.5" font-family="Helvetica,sans-Serif" font-size="10.00">ProgramManager &gt;</text>
</a>
</g>
</g>
<!-- Node9&#45;&gt;Node4 -->
<g id="edge8" class="edge"><title>Node9&#45;&gt;Node4</title>
<path fill="none" stroke="midnightblue" d="M359.996,-240.257C374.252,-238.518 389.001,-236.719 403.091,-235.001"/>
<polygon fill="midnightblue" stroke="midnightblue" points="359.223,-236.825 349.72,-241.51 360.07,-243.773 359.223,-236.825"/>
</g>
<!-- Node10 -->
<g id="node10" class="node"><title>Node10</title>
<g id="a_node10"><a xlink:href="class_ogre_1_1_singleton.html" target="_top" xlink:title="Ogre::Singleton\&lt; GLSLESProgram\lPipelineManager \&gt;">
<polygon fill="none" stroke="black" points="191,-137.5 191,-167.5 359,-167.5 359,-137.5 191,-137.5"/>
<text text-anchor="start" x="199" y="-155.5" font-family="Helvetica,sans-Serif" font-size="10.00">Ogre::Singleton&lt; GLSLESProgram</text>
<text text-anchor="middle" x="275" y="-144.5" font-family="Helvetica,sans-Serif" font-size="10.00">PipelineManager &gt;</text>
</a>
</g>
</g>
<!-- Node10&#45;&gt;Node5 -->
<g id="edge9" class="edge"><title>Node10&#45;&gt;Node5</title>
<path fill="none" stroke="midnightblue" d="M369.208,-154.773C381.326,-155.069 393.617,-155.369 405.399,-155.656"/>
<polygon fill="midnightblue" stroke="midnightblue" points="369.168,-151.271 359.086,-154.526 368.997,-158.269 369.168,-151.271"/>
</g>
<!-- Node11 -->
<g id="node11" class="node"><title>Node11</title>
<g id="a_node11"><a xlink:href="class_ogre_1_1_singleton.html" target="_top" xlink:title="Ogre::Singleton\&lt; GLSLLink\lProgramManager \&gt;">
<polygon fill="none" stroke="black" points="9.5,-284.5 9.5,-314.5 145.5,-314.5 145.5,-284.5 9.5,-284.5"/>
<text text-anchor="start" x="17.5" y="-302.5" font-family="Helvetica,sans-Serif" font-size="10.00">Ogre::Singleton&lt; GLSLLink</text>
<text text-anchor="middle" x="77.5" y="-291.5" font-family="Helvetica,sans-Serif" font-size="10.00">ProgramManager &gt;</text>
</a>
</g>
</g>
<!-- Node11&#45;&gt;Node2 -->
<g id="edge10" class="edge"><title>Node11&#45;&gt;Node2</title>
<path fill="none" stroke="midnightblue" d="M155.893,-299.5C169.643,-299.5 183.955,-299.5 197.675,-299.5"/>
<polygon fill="midnightblue" stroke="midnightblue" points="155.507,-296 145.506,-299.5 155.506,-303 155.507,-296"/>
</g>
<!-- Node12 -->
<g id="node12" class="node"><title>Node12</title>
<g id="a_node12"><a xlink:href="class_ogre_1_1_singleton.html" target="_top" xlink:title="Ogre::Singleton\&lt; GLSLMonolithic\lProgramManager \&gt;">
<polygon fill="none" stroke="black" points="194,-88.5 194,-118.5 356,-118.5 356,-88.5 194,-88.5"/>
<text text-anchor="start" x="202" y="-106.5" font-family="Helvetica,sans-Serif" font-size="10.00">Ogre::Singleton&lt; GLSLMonolithic</text>
<text text-anchor="middle" x="275" y="-95.5" font-family="Helvetica,sans-Serif" font-size="10.00">ProgramManager &gt;</text>
</a>
</g>
</g>
<!-- Node12&#45;&gt;Node7 -->
<g id="edge11" class="edge"><title>Node12&#45;&gt;Node7</title>
<path fill="none" stroke="midnightblue" d="M366.492,-101.293C380.126,-100.96 394.047,-100.621 407.272,-100.298"/>
<polygon fill="midnightblue" stroke="midnightblue" points="366.051,-97.8025 356.139,-101.545 366.222,-104.8 366.051,-97.8025"/>
</g>
<!-- Node13 -->
<g id="node13" class="node"><title>Node13</title>
<g id="a_node13"><a xlink:href="class_ogre_1_1_singleton.html" target="_top" xlink:title="Ogre::Singleton\&lt; GLSLSeparable\lProgramManager \&gt;">
<polygon fill="none" stroke="black" points="194.5,-0.5 194.5,-30.5 355.5,-30.5 355.5,-0.5 194.5,-0.5"/>
<text text-anchor="start" x="202.5" y="-18.5" font-family="Helvetica,sans-Serif" font-size="10.00">Ogre::Singleton&lt; GLSLSeparable</text>
<text text-anchor="middle" x="275" y="-7.5" font-family="Helvetica,sans-Serif" font-size="10.00">ProgramManager &gt;</text>
</a>
</g>
</g>
<!-- Node13&#45;&gt;Node8 -->
<g id="edge12" class="edge"><title>Node13&#45;&gt;Node8</title>
<path fill="none" stroke="midnightblue" d="M365.596,-22.0558C379.489,-23.0724 393.703,-24.1124 407.196,-25.0997"/>
<polygon fill="midnightblue" stroke="midnightblue" points="365.781,-18.56 355.552,-21.3209 365.27,-25.5414 365.781,-18.56"/>
</g>
</g>
</svg>
